<?xml version="1.0" encoding="UTF-8"?>
<!-- Generator: visioncortex VTracer 0.6.12 -->
<svg version="1.1" xmlns="http://www.w3.org/2000/svg" width="512" height="512">
<path d="M0 0 C1.70824133 -0.02735618 3.41661405 -0.04655506 5.125 -0.0625 C6.07632813 -0.07410156 7.02765625 -0.08570313 8.0078125 -0.09765625 C11.09525915 0.00310898 13.95550167 0.48755969 17 1 C19.78840861 1.24887876 22.5799381 1.40834198 25.375 1.5625 C26.11105469 1.60568359 26.84710938 1.64886719 27.60546875 1.69335938 C29.40348068 1.79843799 31.20171958 1.89962093 33 2 C33.15855469 2.78503906 33.31710938 3.57007813 33.48046875 4.37890625 C34.96733059 11.0738919 36.57564828 15.73860877 41 21 C39.97519531 20.96519531 38.95039063 20.93039062 37.89453125 20.89453125 C36.53387064 20.86637965 35.1731922 20.83908096 33.8125 20.8125 C33.13896484 20.78736328 32.46542969 20.76222656 31.77148438 20.73632812 C27.31968603 20.67117986 24.47403596 21.15285774 21 24 C19.9375 27.4375 19.9375 27.4375 20 31 C21.84136174 33.41281883 23.30301826 34.65150913 26 36 C39.30402564 36.95553775 39.30402564 36.95553775 45 33 C46 32 46 32 46.25 28.625 C46 25 46 25 44.484375 23.2734375 C44.23945313 23.06332031 44.23945313 23.06332031 43 22 C43.84304687 21.90203125 44.68609375 21.8040625 45.5546875 21.703125 C46.65039062 21.55359375 47.74609375 21.4040625 48.875 21.25 C49.96554688 21.11078125 51.05609375 20.9715625 52.1796875 20.828125 C55 20 55 20 56.28515625 18.16796875 C56.52105469 17.45253906 56.75695312 16.73710937 57 16 C57.26941406 15.35160156 57.53882813 14.70320313 57.81640625 14.03515625 C58.06261719 13.38417969 58.30882812 12.73320312 58.5625 12.0625 C58.81128906 11.41410156 59.06007812 10.76570313 59.31640625 10.09765625 C60.06980885 7.78578657 60.52313698 5.38431511 61 3 C71.23 3 81.46 3 92 3 C92.33 2.01 92.66 1.02 93 0 C93.09796875 0.78503906 93.1959375 1.57007813 93.296875 2.37890625 C94.20945371 8.79055842 95.00813782 13.82136798 99 19 C101.27411155 20.63833843 103.4559786 21.77691279 106 23 C105.87625 23.61875 105.87625 23.61875 105.25 26.75 C104.74516431 30.65728993 104.74516431 30.65728993 106.8125 33.4375 C110.64484705 36.17489075 113.42557573 36.26344573 118.125 36.5625 C119.40632813 36.64628906 120.68765625 36.73007812 122.0078125 36.81640625 C122.99523437 36.87699219 123.98265625 36.93757813 125 37 C124.75519444 47.1037931 121.86410436 56.39309643 119 66 C105.96901442 68.434558 92.93826816 68.30523797 79.72387695 68.26074219 C75.97004783 68.25009234 72.21670456 68.26064684 68.46289062 68.2734375 C49.10864584 68.2844422 30.11606532 67.06639956 11 64 C11.66 63.835 11.66 63.835 15 63 C14.68546875 61.99066406 14.3709375 60.98132813 14.046875 59.94140625 C8.57448056 41.71727996 6.13710371 22.86837616 4 4 C3.01 3.67 2.02 3.34 1 3 C1 5.31 1 7.62 1 10 C0.67 10 0.34 10 0 10 C0 6.7 0 3.4 0 0 Z " fill="#E4813A" transform="translate(184,335)"/>
<path d="M0 0 C0.51771973 0.03496582 0.51771973 0.03496582 3.13769531 0.21191406 C10.52658034 0.81819394 17.92450617 1.91333207 25 4.1875 C26.32557818 6.83865635 26.12957777 8.85820523 26.1328125 11.82421875 C26.13410156 12.95923828 26.13539063 14.09425781 26.13671875 15.26367188 C26.13285156 16.45541016 26.12898437 17.64714844 26.125 18.875 C26.12886719 20.04740234 26.13273438 21.21980469 26.13671875 22.42773438 C26.13029489 28.11606649 26.03304453 33.58774275 25 39.1875 C23.515 39.3525 23.515 39.3525 16 40.1875 C15.75765625 39.45144531 15.5153125 38.71539062 15.265625 37.95703125 C11.06220096 25.71860048 11.06220096 25.71860048 6 23.1875 C1.30746069 22.54216061 -1.95229015 22.43588206 -5.875 25.25 C-9.46546892 30.21329527 -11.06871382 35.39364146 -13 41.1875 C-23.23 41.1875 -33.46 41.1875 -44 41.1875 C-44.33 39.5375 -44.33 39.5375 -46 31.1875 C-47.6583475 28.09191801 -48.9999805 25.97322961 -51.75 23.8125 C-55.23733655 22.8437954 -58.45450044 22.53168505 -62 23.1875 C-67.07459042 26.34715064 -69.09904796 29.58469398 -71 35.1875 C-71.35123418 36.8504863 -71.68815174 38.51667998 -72 40.1875 C-83.17661864 40.458266 -93.92803142 39.72222832 -105 38.1875 C-106.03974499 34.77684861 -106.11508506 31.66485158 -106.09765625 28.109375 C-106.09443359 26.94921875 -106.09121094 25.7890625 -106.08789062 24.59375 C-106.07951172 23.3871875 -106.07113281 22.180625 -106.0625 20.9375 C-106.05798828 19.71546875 -106.05347656 18.4934375 -106.04882812 17.234375 C-106.03704815 14.21870054 -106.02059853 11.20312502 -106 8.1875 C-73.0751388 -3.72944568 -34.49141095 -2.40820624 0 0 Z " fill="#D37A36" transform="translate(289,296.8125)"/>
<path d="M0 0 C-3.74535179 4.57765219 -7.73411953 8.78613352 -11.9375 12.9375 C-15.90411151 16.85568653 -19.68818084 20.83479028 -23.30078125 25.0859375 C-25.23499016 27.26470156 -27.28823811 29.2796132 -29.375 31.3125 C-33.57762057 35.44340349 -37.23966562 39.87423755 -40.859375 44.51953125 C-43 47 -43 47 -48 51 C-48 43.74 -48 36.48 -48 29 C-48.66 29 -49.32 29 -50 29 C-49.98167114 29.37286133 -49.98167114 29.37286133 -49.88891602 31.25976562 C-49.74247128 34.6727488 -49.65207792 38.08507013 -49.5625 41.5 C-49.50384766 42.67304688 -49.44519531 43.84609375 -49.38476562 45.0546875 C-49.26812752 50.98656831 -49.27804602 54.98588122 -53.3125 59.5625 C-54.5257601 60.72516274 -55.75323907 61.87333593 -57 63 C-58.16880824 64.48216778 -59.32243695 65.97698706 -60.4375 67.5 C-60.93121094 68.1703125 -61.42492187 68.840625 -61.93359375 69.53125 C-62.28550781 70.0159375 -62.63742187 70.500625 -63 71 C-65.89762005 68.54116242 -66.8976495 66.12374927 -68.125 62.5625 C-68.45757812 61.61503906 -68.79015625 60.66757813 -69.1328125 59.69140625 C-70 57 -70 57 -70.4921875 54.71484375 C-70.65976562 54.14894531 -70.82734375 53.58304688 -71 53 C-71.33 52.835 -71.33 52.835 -73 52 C-70.46754429 63.51116234 -70.46754429 63.51116234 -67.8125 68.5 C-66 72 -66 72 -66 76 C-67.32660143 78.34684174 -68.67769767 80.52825111 -70.1875 82.75 C-71.0133694 83.99716508 -71.83889207 85.24455984 -72.6640625 86.4921875 C-73.0652832 87.09256836 -73.46650391 87.69294922 -73.87988281 88.31152344 C-75.99228963 91.49578794 -77.98664993 94.75266118 -80 98 C-82.79163712 95.59231297 -83.89717557 93.23853384 -85.1875 89.8125 C-85.53167969 88.91144531 -85.87585938 88.01039063 -86.23046875 87.08203125 C-86.48441406 86.39496094 -86.73835938 85.70789063 -87 85 C-87.29086994 89.03670719 -86.6377861 91.07411988 -84.4375 94.4375 C-82.66088007 97.47234934 -82 98.6584463 -82 102.25 C-83.0380555 105.10465263 -84.29972744 107.4865536 -86 110 C-92.94029635 107.29159167 -97.18389185 102.56218643 -100.51953125 96.01953125 C-103.8013815 88.40601698 -105.14498226 81.87046707 -105.1875 73.5625 C-105.20167969 72.30566406 -105.21585937 71.04882812 -105.23046875 69.75390625 C-104.98767561 65.79925868 -104.22245831 62.74468455 -103 59 C-102.00302727 62.25933393 -101.98688602 65.04449977 -102.125 68.4375 C-102.16955137 80.67427694 -98.77096937 93.64426509 -90.28125 102.8671875 C-89.8584375 103.24101562 -89.435625 103.61484375 -89 104 C-89.48210937 103.154375 -89.96421875 102.30875 -90.4609375 101.4375 C-91.09257812 100.303125 -91.72421875 99.16875 -92.375 98 C-93.00148438 96.88625 -93.62796875 95.7725 -94.2734375 94.625 C-99.94754283 83.4478986 -100.09694038 67.1921607 -96.375 55.375 C-95.63555052 53.56115877 -94.8442872 51.76747975 -94 50 C-93.78794922 49.5359375 -93.78794922 49.5359375 -92.71484375 47.1875 C-83.09032944 27.88485291 -64.83217573 15.87627235 -45 9 C-36.48915506 6.36821752 -27.82270344 5.1093636 -19 4 C-19.165 3.67 -19.165 3.67 -20 2 C-17.60468244 1.66254646 -15.20885732 1.3299171 -12.8125 1 C-12.13896484 0.90460938 -11.46542969 0.80921875 -10.77148438 0.7109375 C-7.15335423 0.21675387 -3.65203599 -0.11346131 0 0 Z " fill="#8ECA4A" transform="translate(365,120)"/>
<path d="M0 0 C0.66 0 1.32 0 2 0 C6.50815604 21.13115806 4.91586071 40.97104916 -3 61 C-3.31001953 61.80711426 -3.62003906 62.61422852 -3.93945312 63.44580078 C-8.14382152 74.13748283 -13.58641365 82.19433174 -22 90 C-22.70640625 90.66257812 -23.4128125 91.32515625 -24.140625 92.0078125 C-39.34798406 104.9514807 -57.55332365 109.24274631 -77 109 C-76.39927994 105.29514588 -75.35267586 102.33024734 -73.671875 98.98046875 C-73.20136719 98.04009766 -72.73085938 97.09972656 -72.24609375 96.13085938 C-71.75238281 95.15955078 -71.25867188 94.18824219 -70.75 93.1875 C-70.27175781 92.22779297 -69.79351562 91.26808594 -69.30078125 90.27929688 C-67.90096858 87.50053596 -66.45458737 84.75038144 -65 82 C-64.8045459 81.59555664 -64.8045459 81.59555664 -63.81542969 79.54882812 C-61.09161512 74.39492121 -61.09161512 74.39492121 -58.12597656 73.32202148 C-55.95908582 73.0596842 -53.93022616 73.03873206 -51.75 73.125 C-49.15578534 73.14326912 -46.59445331 73.10069796 -44 73 C-43.67 72.34 -43.34 71.68 -43 71 C-47.62 71 -52.24 71 -57 71 C-55.38592364 67.95631316 -53.73982724 64.97079136 -52 62 C-51.65066406 61.38511719 -51.30132812 60.77023438 -50.94140625 60.13671875 C-49.22256365 57.59937968 -47.55753001 56.16505823 -44.625 55.296875 C-42.75807251 54.96804118 -40.88327667 54.68161951 -39.00390625 54.43359375 C-34.21883109 53.7429002 -29.6360418 52.34507983 -25 51 C-25 50.34 -25 49.68 -25 49 C-25.95261719 49.28875 -26.90523438 49.5775 -27.88671875 49.875 C-29.14097656 50.24625 -30.39523437 50.6175 -31.6875 51 C-32.92886719 51.37125 -34.17023438 51.7425 -35.44921875 52.125 C-38.5010019 52.87703457 -40.88898362 53.19034899 -44 53 C-40.29408425 46.98333678 -36.13686586 41.7743974 -31.34375 36.58984375 C-29.02290064 34.0253052 -26.84979053 31.38644597 -24.6875 28.6875 C-20.78444487 23.85644575 -16.64382835 19.31717375 -12.39379883 14.79492188 C-8.50771942 10.63139956 -4.95278372 6.28122565 -1.5234375 1.73046875 C-1.27207031 1.44494141 -1.27207031 1.44494141 0 0 Z " fill="#8DCB48" transform="translate(365,122)"/>
<path d="M0 0 C6.1757715 4.9406172 11.3847598 10.62242648 16.64648438 16.49365234 C17.88671597 17.87392452 19.13812761 19.24412969 20.390625 20.61328125 C25.07895861 25.75241617 29.54430866 31.03295072 33.9140625 36.4453125 C35.75207126 38.69635693 37.63831073 40.88536566 39.5625 43.0625 C42 46 42 46 42 48 C42.66 48 43.32 48 44 48 C44 48.66 44 49.32 44 50 C36.14868332 49.65259661 29.35074375 47.71548094 22 45 C24.48452541 47.94774201 26.93592512 48.92402214 30.5625 50.125 C31.53316406 50.45757812 32.50382812 50.79015625 33.50390625 51.1328125 C37 52 37 52 39.40820312 52.0378418 C46.03270449 52.15061783 46.03270449 52.15061783 48.8605957 54.63378906 C50.54668337 56.86750155 51.97470651 59.13980045 53.375 61.5625 C53.86871094 62.34947266 54.36242187 63.13644531 54.87109375 63.94726562 C57.90515625 68.85435605 60.40383823 73.80767646 63 79 C57.06 79 51.12 79 45 79 C45 79.66 45 80.32 45 81 C51.27 81 57.54 81 64 81 C70 91.75 70 91.75 70 94 C63.77789206 96.43775581 58.35907939 97.49034685 51.6875 97.375 C51.27705444 97.37209961 51.27705444 97.37209961 49.19995117 97.35742188 C42.52003724 97.2158955 36.34991508 96.12931284 30 94 C30.66 93.34 31.32 92.68 32 92 C31.32195312 91.67128906 30.64390625 91.34257812 29.9453125 91.00390625 C22.59677289 87.24821218 16.8344349 82.81445395 11 77 C10.3503125 76.37351562 9.700625 75.74703125 9.03125 75.1015625 C-4.48484844 61.05193386 -5.54238212 42.03896976 -5.3671875 23.671875 C-5.08662975 15.25514251 -3.04208941 7.80078641 0 0 Z " fill="#8FCB4A" transform="translate(157,136)"/>
<path d="M0 0 C7.39358652 0.51457196 14.67344832 1.3260669 21.9921875 2.5 C34.19674341 4.16575695 46.46093422 4.16211578 58.75 4.125 C59.17326065 4.12455688 59.17326065 4.12455688 61.31521606 4.12231445 C75.89443037 4.10445766 90.43851181 3.75612755 105 3 C103.18174535 9.60580868 100.96683372 15.76403209 98 21.9375 C97.65710938 22.67806641 97.31421875 23.41863281 96.9609375 24.18164062 C94.72702565 28.89246619 93.09244896 32.0520397 88.171875 34.28125 C64.55292685 42.69347811 38.86753565 44.67787644 15.19140625 34.83203125 C9.28500925 29.89424125 6.75096283 22.44050036 4.25 15.375 C3.94707031 14.55515625 3.64414063 13.7353125 3.33203125 12.890625 C1.78251344 8.60706911 0.55910654 4.546419 0 0 Z " fill="#E9853D" transform="translate(196,402)"/>
<path d="M0 0 C0.49177734 0.11537109 0.49177734 0.11537109 2.98046875 0.69921875 C3.30970337 0.77640137 3.30970337 0.77640137 4.97583008 1.16699219 C6.48007002 1.52100914 7.98379699 1.87721127 9.48706055 2.23535156 C13.68361298 3.23297282 17.8831764 4.19647755 22.1015625 5.09765625 C41.96115282 9.42586057 66.11451702 15.93406587 78 34 C85.65336676 47.57855393 88.17678508 58.90064245 83.921875 74.234375 C82.15461343 79.5361597 79.81529452 84.83786053 76 89 C75.34 89 74.68 89 74 89 C73.10565843 87.59546357 72.23506808 86.17578131 71.375 84.75 C70.88773437 83.96109375 70.40046875 83.1721875 69.8984375 82.359375 C69 80 69 80 69.65625 78.15625 C69.87796875 77.80046875 69.87796875 77.80046875 71 76 C72.05338845 73.58757671 73.09585785 71.17266955 74.125 68.75 C74.26357422 68.42515625 74.26357422 68.42515625 74.96484375 66.78125 C75.64433104 65.18796947 76.32231628 63.5940485 77 62 C73.94616796 63.52691602 73.61913497 65.95216256 72.375 69.0625 C71.92898437 70.16722656 71.48296875 71.27195312 71.0234375 72.41015625 C70.68570313 73.26480469 70.34796875 74.11945313 70 75 C68.68 75 67.36 75 66 75 C64.25705004 72.91500355 62.82460777 70.96096819 61.375 68.6875 C60.98054688 68.09259766 60.58609375 67.49769531 60.1796875 66.88476562 C59.10785494 65.2643431 58.05316853 63.63261454 57 62 C56.34 61.01 55.68 60.02 55 59 C55.27734375 56.4921875 55.27734375 56.4921875 56 53 C56.26140425 51.27493808 56.51170846 49.54817564 56.75390625 47.8203125 C56.88603516 46.8921875 57.01816406 45.9640625 57.15429688 45.0078125 C57.28900391 44.05648437 57.42371094 43.10515625 57.5625 42.125 C57.63178711 41.63773438 57.63178711 41.63773438 57.98242188 39.171875 C58.32225285 36.78133989 58.66142706 34.39071355 59 32 C58.34 32 57.68 32 57 32 C56.96261719 32.66644531 56.92523438 33.33289063 56.88671875 34.01953125 C56.39004411 40.98271493 55.05018792 47.33366568 53 54 C49.20265737 52.73421912 48.21091952 51.06527709 45.75 47.9375 C42.99996927 44.44276274 40.2360128 41.23198214 37.0625 38.125 C32.65213859 33.20535898 32.59989011 27.33127266 32 21 C31.5859375 18.16796875 31.5859375 18.16796875 31 16 C30.34 15.67 29.68 15.34 29 15 C29.144375 15.66386719 29.28875 16.32773438 29.4375 17.01171875 C29.623125 17.89472656 29.80875 18.77773437 30 19.6875 C30.185625 20.55761719 30.37125 21.42773438 30.5625 22.32421875 C30.98972047 24.93712964 31.07616201 27.35813038 31 30 C24.91168351 24.96654872 19.36913346 19.48470931 13.8125 13.875 C13.3680957 13.42833984 13.3680957 13.42833984 11.11914062 11.16796875 C9.4712488 9.51141032 7.82439251 7.85382059 6.17895508 6.19482422 C4.12411712 4.12502105 2.06365176 2.06101169 0 0 Z " fill="#8CC949" transform="translate(159,135)"/>
<path d="M0 0 C0.76715332 0.18353027 1.53430664 0.36706055 2.32470703 0.55615234 C7.28767885 1.78562773 11.891148 3.37711481 16.578125 5.4296875 C20.88309349 7.04048697 25.40357369 7.65740798 29.9375 8.3125 C30.1025 8.8075 30.1025 8.8075 30.9375 11.3125 C19.31191148 10.5743674 8.08542533 7.57067477 -3.0625 4.3125 C-2.56105469 4.74175781 -2.05960938 5.17101562 -1.54296875 5.61328125 C8.06640304 14.04399074 16.94454562 23.2364485 25.9375 32.3125 C25.6075 27.6925 25.2775 23.0725 24.9375 18.3125 C25.9275 18.6425 26.9175 18.9725 27.9375 19.3125 C29.09614028 22.85278975 29.94200401 25.94778603 29.9296875 29.6796875 C29.95360505 37.16587982 33.19819438 40.49333526 38.35546875 45.6875 C41.17470374 48.55365116 43.47745254 51.56999053 45.78125 54.8515625 C46.9375 56.3125 46.9375 56.3125 48.9375 57.3125 C48.99808594 56.97927734 48.99808594 56.97927734 49.3046875 55.29296875 C50.515625 48.6328125 51.7265625 41.97265625 52.9375 35.3125 C53.5975 35.3125 54.2575 35.3125 54.9375 35.3125 C55.2554543 43.45566291 54.53600619 51.32238066 52.0390625 59.1171875 C51.88313695 64.02284515 54.42170954 66.83991174 57.25 70.6875 C57.50620117 71.05552734 57.50620117 71.05552734 58.80273438 72.91796875 C61.58870569 76.83358423 61.58870569 76.83358423 62.9375 78.3125 C63.5975 78.3125 64.2575 78.3125 64.9375 78.3125 C65.9275 76.1675 65.9275 76.1675 70.9375 65.3125 C71.5975 65.3125 72.2575 65.3125 72.9375 65.3125 C70.39943599 75.04174539 70.39943599 75.04174539 67.625 78.625 C67.068125 79.511875 66.51125 80.39875 65.9375 81.3125 C66.5625 83.8125 66.5625 83.8125 67.9375 86.3125 C68.61545528 88.30870166 69.28483531 90.30788701 69.9375 92.3125 C77.11725518 86.77383172 79.54636459 77.90717413 80.6953125 69.23828125 C81.22171155 64.60372782 81.60834253 59.96491974 81.9375 55.3125 C84.10327207 58.5611581 84.18705466 59.49851347 84.125 63.25 C84.11855469 64.10464844 84.11210937 64.95929688 84.10546875 65.83984375 C83.95025689 68.12470668 83.57374477 70.11872805 82.9375 72.3125 C83.5975 72.3125 84.2575 72.3125 84.9375 72.3125 C86.29721223 78.74023054 86.29721223 78.74023054 84.5625 81.5 C84.02625 82.098125 83.49 82.69625 82.9375 83.3125 C82.8034375 83.91835937 82.669375 84.52421875 82.53125 85.1484375 C81.57789179 88.6231773 79.26534855 91.15002784 77.1171875 93.99609375 C75.63426534 96.90792435 76.07511618 98.23255779 76.9375 101.3125 C76.5625 103.375 76.5625 103.375 75.9375 105.3125 C75.7725 105.9725 75.7725 105.9725 74.9375 109.3125 C73.2875 105.6825 71.6375 102.0525 69.9375 98.3125 C69.6075 98.4775 69.6075 98.4775 67.9375 99.3125 C68.57937918 104.44753344 69.62022247 109.3068454 70.9375 114.3125 C69.9475 114.3125 68.9575 114.3125 67.9375 114.3125 C67.9375 112.6625 67.9375 111.0125 67.9375 109.3125 C67.2775 109.3125 66.6175 109.3125 65.9375 109.3125 C65.74414062 108.68601562 65.55078125 108.05953125 65.3515625 107.4140625 C65.09117187 106.59679687 64.83078125 105.77953125 64.5625 104.9375 C64.30726563 104.12539062 64.05203125 103.31328125 63.7890625 102.4765625 C62.9375 100.3125 62.9375 100.3125 60.9375 98.3125 C61.9275 98.3125 62.9175 98.3125 63.9375 98.3125 C61.9575 94.3525 59.9775 90.3925 57.9375 86.3125 C57.0196875 86.3228125 57.0196875 86.3228125 52.375 86.375 C47.77025504 86.3804494 43.46224829 86.13518151 38.9375 85.3125 C38.9375 84.6525 38.9375 83.9925 38.9375 83.3125 C41.7425 83.1475 41.7425 83.1475 55.9375 82.3125 C51.52735437 74.89543689 51.52735437 74.89543689 49.2890625 71.2421875 C47.91188518 68.97867576 46.65546127 66.75289934 45.4609375 64.3828125 C44.13386938 61.89964823 43.06925746 60.15911793 40.9375 58.3125 C37.71910391 57.36668564 34.68678855 56.99433927 31.34765625 56.6953125 C26.30986459 56.1297872 21.41896526 54.71572851 16.9375 52.3125 C16.6075 51.3225 16.2775 50.3325 15.9375 49.3125 C20.57488293 50.19536849 25.15790964 51.28567764 29.75 52.375 C30.53826172 52.56126953 31.32652344 52.74753906 32.13867188 52.93945312 C34.07179492 53.39637312 36.00467225 53.85433245 37.9375 54.3125 C37.9375 53.6525 37.9375 52.9925 37.9375 52.3125 C37.2775 52.3125 36.6175 52.3125 35.9375 52.3125 C34.4140625 50.6171875 34.4140625 50.6171875 32.5625 48.1875 C24.458314 37.81589734 15.75335619 27.9955586 6.77734375 18.375 C3.3433529 14.69031033 0.00847376 10.92056544 -3.3203125 7.140625 C-5.0625 5.3125 -5.0625 5.3125 -7.0625 4.3125 C-8.3825 7.6125 -9.7025 10.9125 -11.0625 14.3125 C-12.0525 14.3125 -13.0425 14.3125 -14.0625 14.3125 C-16.0625 11.3125 -16.0625 11.3125 -15.9375 9.0625 C-14.7630234 5.37128783 -13.18947284 2.56551729 -11.0625 -0.6875 C-7.04995461 -2.02501513 -3.97983972 -0.9784238 0 0 Z M83.9375 75.3125 C84.9375 78.3125 84.9375 78.3125 84.9375 78.3125 Z M82.9375 79.3125 C83.9375 81.3125 83.9375 81.3125 83.9375 81.3125 Z " fill="#1D541F" transform="translate(163.0625,131.6875)"/>
<path d="M0 0 C-2.21109232 9.73374719 -4.68194016 18.94388666 -9 28 C-9.20689453 28.43441406 -9.20689453 28.43441406 -10.25390625 30.6328125 C-12.6127155 35.23212082 -14.21886906 37.68760016 -19 40 C-21.76008685 40.86601481 -24.55014096 41.5076794 -27.375 42.125 C-27.73980469 42.20943359 -27.73980469 42.20943359 -29.5859375 42.63671875 C-37.42953036 44.41553356 -44.90562197 45.1419026 -52.9375 45.0625 C-53.81212891 45.05798828 -54.68675781 45.05347656 -55.58789062 45.04882812 C-57.72529047 45.03714834 -59.86265463 45.01921689 -62 45 C-62 44.67 -62 44.34 -62 44 C-61.37802734 43.88462891 -61.37802734 43.88462891 -58.23046875 43.30078125 C-34.71137046 38.78942712 -34.71137046 38.78942712 -30.85791016 33.40380859 C-28.09568269 28.81294559 -26.02380908 23.94920605 -24 19 C-23.09165028 16.8240081 -22.18277745 14.64823452 -21.2734375 12.47265625 C-20.51516154 10.6486301 -19.75718641 8.82447871 -19 7 C-19.58338135 7.06058594 -20.1667627 7.12117188 -20.76782227 7.18359375 C-51.49553511 10.24488519 -85.43419002 12.10618544 -115.76782227 5.41015625 C-118.90251618 4.83416524 -121.82214355 4.86183233 -125 5 C-125 3.68 -125 2.36 -125 1 C-118.78010671 1.40333779 -112.56868835 1.81585789 -106.37158203 2.48754883 C-92.30239314 3.980179 -78.33829649 4.3409852 -64.19580078 4.31567383 C-60.5039337 4.31250338 -56.81286332 4.33612249 -53.12109375 4.36132812 C-37.32936685 4.40229599 -22.18933743 3.17044835 -6.65039062 0.40356445 C-4 0 -4 0 0 0 Z " fill="#B36526" transform="translate(320,398)"/>
<path d="M0 0 C0.99 0 1.98 0 3 0 C3.165 1.98 3.165 1.98 4 12 C3.67 11.835 3.67 11.835 2 11 C2 9.02 2 7.04 2 5 C-5.72571188 12.62948415 -12.90349785 20.78671763 -20 29 C-20.42506836 29.48807129 -20.85013672 29.97614258 -21.28808594 30.47900391 C-28.80418031 39.11193729 -36.00520666 47.93981493 -43 57 C-36.85845775 56.41509121 -30.99320151 55.45933748 -25 54 C-25 54.66 -25 55.32 -25 56 C-27.16264606 56.82314197 -29.33035098 57.63299779 -31.5 58.4375 C-32.14348389 58.67919922 -32.78696777 58.92089844 -33.44995117 59.16992188 C-36.8729129 60.40914362 -39.68035581 61.18493606 -43.3125 61 C-49.73101125 62.74061322 -52.70723041 69.51967283 -56 75 C-51.71 75.33 -47.42 75.66 -43 76 C-43.165 76.495 -43.165 76.495 -44 79 C-49.28 79 -54.56 79 -60 79 C-60.66 80.65 -61.32 82.3 -62 84 C-62.87084435 85.74572194 -63.76557782 87.47966381 -64.6796875 89.203125 C-65.19660156 90.18410156 -65.71351563 91.16507812 -66.24609375 92.17578125 C-67.32385448 94.20982847 -68.40197394 96.24368566 -69.48046875 98.27734375 C-72.54719901 104.09880442 -75.43084828 109.94128987 -78 116 C-77.34 116.33 -76.68 116.66 -76 117 C-80.32734391 119.22923777 -83.28400182 118.92470553 -88 118 C-88 117.34 -88 116.68 -88 116 C-88.9075 115.71125 -89.815 115.4225 -90.75 115.125 C-95.92927181 113.33217514 -98.43670294 111.83520757 -101.75 107.375 C-102.36359375 106.55773437 -102.9771875 105.74046875 -103.609375 104.8984375 C-104.06828125 104.27195312 -104.5271875 103.64546875 -105 103 C-104.67 102.835 -104.67 102.835 -103 102 C-103 100.68 -103 99.36 -103 98 C-102.01 98 -101.02 98 -100 98 C-98.5703125 99.828125 -98.5703125 99.828125 -97.125 102.25 C-94.12882925 106.97844813 -91.43791288 110.18736237 -86 112 C-82.97885196 106.80362538 -82.97885196 106.80362538 -83.0625 103.625 C-83.90264981 101.27258053 -84.89420341 99.26140109 -86.0625 97.0625 C-87.89966398 93.56724579 -88.39997025 90.9997025 -88 87 C-84.94616796 88.52691602 -84.61913497 90.95216256 -83.375 94.0625 C-82.92898438 95.16722656 -82.48296875 96.27195312 -82.0234375 97.41015625 C-81.85457031 97.83748047 -81.85457031 97.83748047 -81 100 C-78.38073598 96.83435187 -76.1141368 93.68268598 -74.0625 90.125 C-71.57800299 85.90198727 -68.91140826 81.93896412 -66 78 C-66.27585937 77.47148437 -66.55171875 76.94296875 -66.8359375 76.3984375 C-68.23319734 73.51951958 -69.44004909 70.59777158 -70.625 67.625 C-71.07101562 66.52414063 -71.51703125 65.42328125 -71.9765625 64.2890625 C-73.00383467 60.98767635 -73.19698725 58.4317252 -73 55 C-72.01 55.33 -71.02 55.66 -70 56 C-68.9375 58.80078125 -68.9375 58.80078125 -68 62.3125 C-66.86614512 66.53138502 -65.88669905 69.67865593 -63 73 C-61.37076065 70.91986415 -59.7465453 68.83612026 -58.125 66.75 C-57.66480469 66.16347656 -57.20460938 65.57695312 -56.73046875 64.97265625 C-56.28574219 64.39902344 -55.84101563 63.82539063 -55.3828125 63.234375 C-55.17857666 62.97253418 -55.17857666 62.97253418 -54.14501953 61.64746094 C-51.72099065 58.15975372 -50.74895005 55.64743873 -50.83984375 51.375 C-50.85080078 50.50359375 -50.86175781 49.6321875 -50.87304688 48.734375 C-50.88368164 48.28320312 -50.88368164 48.28320312 -50.9375 46 C-50.97205197 44.20841621 -51.00216397 42.41674002 -51.02734375 40.625 C-51.0363269 40.22925781 -51.0363269 40.22925781 -51.08178711 38.2265625 C-51.00038941 36.01060115 -50.61840403 34.12335885 -50 32 C-49.34 32 -48.68 32 -48 32 C-47.835 35.465 -47.835 35.465 -47 53 C-36.15178571 41.21428571 -36.15178571 41.21428571 -32.375 36.8125 C-29.15368142 33.09025868 -25.67857911 29.66273267 -22.17578125 26.20703125 C-20.25502616 24.25868901 -18.45957195 22.27000791 -16.6875 20.1875 C-14.53859835 17.66266756 -12.30421746 15.28729793 -9.93359375 12.97265625 C-9.38936768 12.44067627 -8.8451416 11.90869629 -8.28442383 11.3605957 C-7.19585756 10.30406022 -6.10081658 9.25414657 -4.9987793 8.21166992 C-0.33330304 3.68387572 -0.33330304 3.68387572 0 0 Z " fill="#205023" transform="translate(365,117)"/>
<path d="M0 0 C0.24603619 8.83604054 -0.44746724 17.31746669 -1.6875 26.0625 C-1.86249023 27.32151123 -2.03748047 28.58052246 -2.21777344 29.87768555 C-3.72914195 40.20998624 -6.06813192 49.98278405 -9 60 C-14.61 60.99 -20.22 61.98 -26 63 C-24.91322234 57.39891512 -23.72865192 51.85541593 -22.375 46.3125 C-21.29345699 41.71458347 -20.67173364 37.70515118 -21 33 C-20.05125 32.690625 -19.1025 32.38125 -18.125 32.0625 C-15 31 -15 31 -13 30 C-12.896875 28.741875 -12.79375 27.48375 -12.6875 26.1875 C-12.62949219 25.47980469 -12.57148438 24.77210938 -12.51171875 24.04296875 C-13 22 -13 22 -15.09375 20.3125 C-18.37638788 18.83001838 -21.24581767 18.28085223 -24.8125 17.8125 C-25.39322266 17.73322266 -25.39322266 17.73322266 -28.33203125 17.33203125 C-28.77224609 17.27724609 -28.77224609 17.27724609 -31 17 C-30.66226562 16.41992188 -30.32453125 15.83984375 -29.9765625 15.2421875 C-29.53054688 14.46101563 -29.08453125 13.67984375 -28.625 12.875 C-28.18414062 12.10929687 -27.74328125 11.34359375 -27.2890625 10.5546875 C-25.88363402 7.76938378 -24.9230865 4.97630694 -24 2 C-23.04738281 1.93941406 -22.09476562 1.87882812 -21.11328125 1.81640625 C-20.48615234 1.77451172 -20.48615234 1.77451172 -17.3125 1.5625 C-16.07113281 1.48128906 -14.82976562 1.40007812 -13.55078125 1.31640625 C-10 1 -10 1 -7.35546875 0.46484375 C-4.84680863 -0.0302318 -2.55065558 -0.03149611 0 0 Z " fill="#D37A36" transform="translate(329,338)"/>
<path d="M0 0 C0 0.66 0 1.32 0 2 C-0.71027344 2.12117188 -1.42054688 2.24234375 -2.15234375 2.3671875 C-2.61189453 2.45097656 -2.61189453 2.45097656 -4.9375 2.875 C-5.85402344 3.03742188 -6.77054687 3.19984375 -7.71484375 3.3671875 C-8.46894531 3.57601563 -9.22304687 3.78484375 -10 4 C-10.33 4.66 -10.66 5.32 -11 6 C-13.40844727 6.68603516 -13.40844727 6.68603516 -16.56640625 7.2890625 C-17.69111328 7.50820313 -18.81582031 7.72734375 -19.97460938 7.953125 C-21.15861328 8.17484375 -22.34261719 8.3965625 -23.5625 8.625 C-24.75037109 8.85445313 -25.93824219 9.08390625 -27.16210938 9.3203125 C-30.10668091 9.88794075 -33.05256725 10.44745503 -36 11 C-36.25654285 45.99244407 -36.25654285 45.99244407 -34.47265625 53.1015625 C-33.36430907 57.553271 -33.5498596 62.6495788 -35 67 C-35.66 67 -36.32 67 -37 67 C-37 66.01 -37 65.02 -37 64 C-37.86238281 63.75378906 -38.72476563 63.50757813 -39.61328125 63.25390625 C-43.26129853 61.90325625 -46.00362122 60.16096921 -49.1875 57.9375 C-54.70833333 54.09722222 -54.70833333 54.09722222 -58 53 C-59.02019573 52.0206121 -60.02149805 51.02104551 -61 50 C-61.66 49.67 -62.32 49.34 -63 49 C-63.40863281 48.35546875 -63.81726563 47.7109375 -64.23828125 47.046875 C-66.62332374 44.2757835 -68.65255798 44.01020259 -72.1875 43.25 C-73.27417969 43.00765625 -74.36085937 42.7653125 -75.48046875 42.515625 C-76.31191406 42.34546875 -77.14335937 42.1753125 -78 42 C-78 39.03 -78 36.06 -78 33 C-76.68 32.34 -75.36 31.68 -74 31 C-72.8671875 29.2734375 -72.8671875 29.2734375 -71.875 27.375 C-70.20819684 24.86695762 -69.50742907 24.1154341 -66.52734375 23.4375 C-63.86925673 23.37630663 -61.5858821 23.36840402 -59 24 C-56.39737108 27.90394338 -56.67334795 30.90768144 -56.5390625 35.50390625 C-56.36117187 36.32761719 -56.18328125 37.15132813 -56 38 C-54.08203125 39.2109375 -54.08203125 39.2109375 -52 40 C-51.360625 40.680625 -50.72125 41.36125 -50.0625 42.0625 C-47.66177824 44.31772347 -46.184313 44.49113944 -43 45 C-42.14998235 36.77620965 -41.72044658 28.57361246 -41.4375 20.3125 C-41.4159082 19.71727539 -41.4159082 19.71727539 -41.30664062 16.70507812 C-41.20176321 13.80346966 -41.09959804 10.90179365 -41 8 C-13.04743083 0 -13.04743083 0 0 0 Z M-59 27 C-59 30.3 -59 33.6 -59 37 C-58.67 37 -58.34 37 -58 37 C-58 33.7 -58 30.4 -58 27 C-58.33 27 -58.66 27 -59 27 Z M-41 35 C-41 38.63 -41 42.26 -41 46 C-40.67 46 -40.34 46 -40 46 C-40 42.37 -40 38.74 -40 35 C-40.33 35 -40.66 35 -41 35 Z " fill="#205023" transform="translate(220,294)"/>
<path d="M0 0 C4.7128406 1.64401416 6.83812691 5.05022847 9.05078125 9.3359375 C11.25162746 15.51279805 10.83303519 22.24742109 8.8125 28.4375 C6.66348307 32.66142982 4.30173896 35.84913052 0 38 C-4.86151375 38.48615138 -7.01018701 38.59008082 -11.25 36.0625 C-16.21923038 31.21546381 -18.21560662 25.27242091 -18.5 18.4375 C-18.21866523 11.73235465 -16.05578411 6.70073965 -11.25 2 C-6.92387532 -0.66223057 -5.01617604 -0.63697474 0 0 Z " fill="#263B2C" transform="translate(235,319)"/>
<path d="M0 0 C3.78483818 0.04813785 4.81988342 0.37964882 8.1875 2.5 C12.90539351 7.6672167 14.37556379 12.32854475 14.3125 19.25 C14.30822998 19.95600342 14.30395996 20.66200684 14.29956055 21.3894043 C14.10878563 27.22792576 12.94582714 31.23025483 8.8125 35.375 C5.33977786 38.37843537 2.20976534 38.92965958 -2.265625 38.7109375 C-5.58520164 38.1306863 -6.97738798 36.89207203 -9.1875 34.375 C-13.46172393 27.74644945 -14.07204816 21.10940279 -13.1875 13.375 C-11.96078157 8.19447373 -9.11831955 4.89204907 -5.1875 1.375 C-3.63766739 -0.17483261 -2.15081622 0.09367039 0 0 Z " fill="#263B2D" transform="translate(290.1875,318.625)"/>
<path d="M0 0 C1.41644354 4.09194801 2.26260116 7.66708088 2 12 C0.68 12 -0.64 12 -2 12 C-2.98248524 7.9472484 -3.08159574 4.16138263 -3 0 C-6 1 -6 1 -7 3 C-9.41041084 3.56041813 -11.75022953 3.99469461 -14.19140625 4.3671875 C-14.9289061 4.48804718 -15.66640594 4.60890686 -16.42625427 4.73342896 C-18.80372695 5.12239068 -21.18282244 5.49978113 -23.5625 5.875 C-52.17636336 10.41079616 -80.72105429 16.85155395 -98.9609375 41.66796875 C-108.04245268 56.04372967 -112.64427752 72.27120967 -109.0625 89.125 C-108.71755388 90.41915956 -108.36463565 91.71124958 -108 93 C-107.66013333 94.66534667 -107.32297514 96.33129513 -107 98 C-107.66 98 -108.32 98 -109 98 C-109.33 99.32 -109.66 100.64 -110 102 C-114.19695575 98.12599992 -115.74118808 93.66371714 -116.28417969 88.07519531 C-116.40307994 84.75310192 -116.40918915 81.44894498 -116.375 78.125 C-116.38660156 77.00480469 -116.39820313 75.88460937 -116.41015625 74.73046875 C-116.38541021 67.66135027 -115.47050097 61.63114725 -113 55 C-112.34 55 -111.68 55 -111 55 C-110.896875 54.3503125 -110.896875 54.3503125 -110.375 51.0625 C-109.17620509 45.58105371 -106.54201192 41.31201451 -103 37 C-102.67 36.835 -102.67 36.835 -101 36 C-100.67 35.01 -100.34 34.02 -100 33 C-99.67 32.835 -99.67 32.835 -98 32 C-97.34 31.34 -96.68 30.68 -96 30 C-95.319375 29.34 -94.63875 28.68 -93.9375 28 C-92 26 -92 26 -91 24 C-90.34 23.855625 -89.68 23.71125 -89 23.5625 C-88.34 23.376875 -87.68 23.19125 -87 23 C-86.67 22.01 -86.34 21.02 -86 20 C-85.01 19.67 -84.02 19.34 -83 19 C-81.65699921 18.3530293 -80.32601365 17.6811094 -79 17 C-58.13848844 6.38172501 -38.00076763 2.84273906 -14.94921875 -0.08203125 C-14.58600273 -0.1287648 -14.58600273 -0.1287648 -12.74790955 -0.36526489 C-3.10729239 -1.5536462 -3.10729239 -1.5536462 0 0 Z M-1 3 C0 6 0 6 0 6 Z M0 7 C1 11 1 11 1 11 Z M-113 58 C-112 60 -112 60 -112 60 Z M-114 61 C-113 65 -113 65 -113 65 Z M-115 66 C-115 67.65 -115 69.3 -115 71 C-114.67 71 -114.34 71 -114 71 C-114 69.35 -114 67.7 -114 66 C-114.33 66 -114.66 66 -115 66 Z M-115 86 C-114 90 -114 90 -114 90 Z M-114 91 C-113 94 -113 94 -113 94 Z M-113 95 C-112 97 -112 97 -112 97 Z " fill="#28502D" transform="translate(371,117)"/>
<path d="M0 0 C3.63 0.66 7.26 1.32 11 2 C9.83119044 8.62325417 8.1445584 14.74413479 5.953125 21.09765625 C4.20651478 26.41622754 3 31.39556842 3 37 C3.28875 36.05125 3.5775 35.1025 3.875 34.125 C5 31 5 31 7 29 C6.67778744 32.66773869 6.34278293 36.33412701 6 40 C5.9278125 40.78632813 5.855625 41.57265625 5.78125 42.3828125 C5.28533497 47.32425152 4.41108151 52.09122546 3.3046875 56.93359375 C3 59 3 59 4 61 C0 61 0 61 -1.75 59.5 C-2.1625 59.005 -2.575 58.51 -3 58 C-3 58.66 -3 59.32 -3 60 C-4.98 60 -6.96 60 -9 60 C-9.33 58.02 -9.66 56.04 -10 54 C-10.33 54.66 -10.66 55.32 -11 56 C-11.99 55.67 -12.98 55.34 -14 55 C-13.50326126 47.60152664 -12.11495999 40.71275479 -10.1875 33.5625 C-9.93935547 32.60279297 -9.69121094 31.64308594 -9.43554688 30.65429688 C-7.66185216 23.95216799 -5.47073408 17.47609052 -3 11 C-2.34 11 -1.68 11 -1 11 C-0.67 7.37 -0.34 3.74 0 0 Z M1 3 C2 5 2 5 2 5 Z M-3 14 C-2 16 -2 16 -2 16 Z M-4 17 C-3 19 -3 19 -3 19 Z M-5 20 C-4 22 -4 22 -4 22 Z M-6 23 C-5 25 -5 25 -5 25 Z M-7 26 C-6 29 -6 29 -6 29 Z M-8 30 C-7 33 -7 33 -7 33 Z M-9 34 C-8 36 -8 36 -8 36 Z M-10 37 C-9 40 -9 40 -9 40 Z M-11 41 C-10 45 -10 45 -10 45 Z M4 41 C5 44 5 44 5 44 Z M3 45 C4 48 4 48 4 48 Z M-12 46 C-11 49 -11 49 -11 49 Z M2 49 C3 53 3 53 3 53 Z M-13 50 C-12 54 -12 54 -12 54 Z M1 54 C2 57 2 57 2 57 Z " fill="#285B2D" transform="translate(273,233)"/>
<path d="M0 0 C0.33 0 0.66 0 1 0 C1 7.92 1 15.84 1 24 C1.99 24 2.98 24 4 24 C7.2565052 30.51301041 3.35552304 40.30001876 1.29711914 46.8503418 C-4.83944917 64.91972459 -4.83944917 64.91972459 -11 68 C-11.165 68.495 -11.165 68.495 -12 71 C-12.495 71.165 -12.495 71.165 -15 72 C-15.0721875 72.2990625 -15.0721875 72.2990625 -15.4375 73.8125 C-16.20988217 76.81620844 -17.63762949 78.04260729 -20 80 C-20.70125 80.165 -21.4025 80.33 -22.125 80.5 C-22.74375 80.665 -23.3625 80.83 -24 81 C-24.33 81.66 -24.66 82.32 -25 83 C-25.33 83.66 -25.66 84.32 -26 85 C-26.53625 85.12761719 -27.0725 85.25523437 -27.625 85.38671875 C-31.05262108 86.27181169 -33.93693313 88.08889307 -37 89.8125 C-48.10999982 95.90792767 -58.64491301 99.19247524 -71.3125 99.0625 C-72.14845703 99.05798828 -72.98441406 99.05347656 -73.84570312 99.04882812 C-75.89716649 99.03710548 -77.94859273 99.01917203 -80 99 C-82.18401004 106.86694329 -84.22222197 114.76330486 -86.1875 122.6875 C-86.46013672 123.78255859 -86.73277344 124.87761719 -87.01367188 126.00585938 C-87.67687406 128.67030326 -88.3389663 131.33501746 -89 134 C-89.33 134 -89.66 134 -90 134 C-89.67 130.37 -89.34 126.74 -89 123 C-90.79553415 125.69330122 -91.42696461 127.1460601 -92.125 130.1875 C-92.41375 131.445625 -92.7025 132.70375 -93 134 C-93.33 134 -93.66 134 -94 134 C-94.18699137 128.83770241 -93.57371847 124.27629212 -92.25 119.3125 C-92.07025635 118.6205957 -91.8905127 117.92869141 -91.70532227 117.21582031 C-86.6848839 98.25311973 -86.6848839 98.25311973 -83 95 C-80.04980937 94.42196777 -77.12372411 94.4485536 -74.125 94.4375 C-53.09929858 93.79310979 -34.65272398 86.65272398 -19.69921875 71.69921875 C-5.39845686 55.17697929 -0.92463929 34.05376838 -0.375 12.8125 C-0.33632813 11.57435547 -0.29765625 10.33621094 -0.2578125 9.06054688 C-0.16452931 6.04050374 -0.07873594 3.0204514 0 0 Z M3 27 C3 28.65 3 30.3 3 32 C3.33 32 3.66 32 4 32 C4 30.35 4 28.7 4 27 C3.67 27 3.34 27 3 27 Z M2 33 C3 37 3 37 3 37 Z M1 38 C2 41 2 41 2 41 Z M0 42 C1 45 1 45 1 45 Z M-1 46 C0 48 0 48 0 48 Z M-83 102 C-82 104 -82 104 -82 104 Z M-84 105 C-83 107 -83 107 -83 107 Z M-85 108 C-84 110 -84 110 -84 110 Z M-86 111 C-85 114 -85 114 -85 114 Z M-87 115 C-86 118 -86 118 -86 118 Z M-88 119 C-87 121 -87 121 -87 121 Z " fill="#234D28" transform="translate(369,139)"/>
<path d="M0 0 C3.36591427 2.72478774 4.44226276 6.06856792 6 10 C6 8.02 6 6.04 6 4 C6.99 4 7.98 4 9 4 C10.35215289 7.51388934 11.67824499 11.03707574 13 14.5625 C13.3815625 15.55314453 13.763125 16.54378906 14.15625 17.56445312 C16.16956295 22.97523169 17.28333286 27.16334316 17 33 C17.43274854 35.32602342 17.93174885 37.64081829 18.5 39.9375 C18.63921875 40.50919922 18.63921875 40.50919922 19.34375 43.40234375 C19.5603125 44.25957031 19.776875 45.11679687 20 46 C19.34 46 18.68 46 18 46 C15.5206176 39.75726932 14.68014269 34.71700347 15 28 C14.34 27.67 13.68 27.34 13 27 C11.94647157 24.69034152 10.94280904 22.3570226 10 20 C10.40634096 21.62536382 10.81275617 23.25070911 11.21948242 24.87597656 C11.57763782 26.30991674 11.9345415 27.74417005 12.2902832 29.17871094 C13.20541234 32.86167482 14.13728679 36.53786002 15.12109375 40.203125 C17.22119066 48.11829169 18.68870083 55.78170193 19 64 C17.02 64 15.04 64 13 64 C12.66223316 62.2508503 12.32996329 60.50063855 12 58.75 C11.814375 57.77546875 11.62875 56.8009375 11.4375 55.796875 C11 53 11 53 11 49 C10.34 49 9.68 49 9 49 C9.144375 49.56847656 9.28875 50.13695312 9.4375 50.72265625 C10.61545505 55.62262205 11.21427527 59.9645312 11 65 C10.34 65 9.68 65 9 65 C9 64.34 9 63.68 9 63 C4.71 63 0.42 63 -4 63 C-4 62.67 -4 62.34 -4 62 C-0.37 62 3.26 62 7 62 C5.91968765 57.34002485 4.83512216 52.68106634 3.74682617 48.02294922 C3.37817968 46.44248401 3.01064011 44.86176014 2.64428711 43.28076172 C-1.09993181 27.12902881 -1.09993181 27.12902881 -3.52148438 19.921875 C-4.22330762 17.10312368 -3.79714053 14.75375818 -3 12 C-2.34 12 -1.68 12 -1 12 C-0.34 13.32 0.32 14.64 1 16 C0.77183594 15.33613281 0.54367188 14.67226562 0.30859375 13.98828125 C0.16486328 13.54677734 0.16486328 13.54677734 -0.5625 11.3125 C-0.85253906 10.44238281 -1.14257812 9.57226562 -1.44140625 8.67578125 C-2.05585041 5.73246482 -1.83848483 3.86691521 -1 1 C-0.67 0.67 -0.34 0.34 0 0 Z M8 6 C9 8 9 8 9 8 Z M11 14 C12 16 12 16 12 16 Z M-3 16 C-2 18 -2 18 -2 18 Z M12 17 C13 19 13 19 13 19 Z M-2 19 C-1 21 -1 21 -1 21 Z M13 20 C14 22 14 22 14 22 Z M-1 22 C0 24 0 24 0 24 Z M14 23 C15 26 15 26 15 26 Z M0 25 C1 28 1 28 1 28 Z M1 29 C2 31 2 31 2 31 Z M2 32 C3 35 3 35 3 35 Z M3 36 C4 40 4 40 4 40 Z M4 41 C5 44 5 44 5 44 Z M5 45 C6 48 6 48 6 48 Z M6 49 C7 52 7 52 7 52 Z M7 53 C8 57 8 57 8 57 Z M8 58 C9 62 9 62 9 62 Z " fill="#2C5C31" transform="translate(232,229)"/>
<path d="M0 0 C0.33 1.32 0.66 2.64 1 4 C1.66 4 2.32 4 3 4 C2.84273437 5.2065625 2.68546875 6.413125 2.5234375 7.65625 C0.16918641 29.10423141 0.10978046 51.85854856 14 69.546875 C23.67859471 80.9057813 36.23209165 87.65679706 51 90 C54.19486178 90.23219811 57.36083161 90.23683633 60.5625 90.1875 C61.36107422 90.18685547 62.15964844 90.18621094 62.98242188 90.18554688 C68.06578134 90.14826062 72.96824423 89.72046904 78 89 C80.91360308 93.77830905 81.19876651 96.55106131 80 102 C78.12379578 98.83390538 77.90337178 96.64167599 78 93 C77.09378906 93.2165625 76.18757813 93.433125 75.25390625 93.65625 C56.14731683 98.02347044 40.94051681 94.40882329 24 85 C23.24332031 84.63132812 22.48664063 84.26265625 21.70703125 83.8828125 C19.74122175 82.8661696 18.55830409 81.55830409 17 80 C16.38898438 79.72929687 15.77796875 79.45859375 15.1484375 79.1796875 C5.17173664 73.70157176 -0.26952024 59.1986132 -3.375 48.9375 C-5.26594194 41.46168302 -5.38828448 33.92814459 -5.4375 26.25 C-5.44765137 25.12585693 -5.45780273 24.00171387 -5.46826172 22.84350586 C-5.39007771 15.33839164 -4.62553731 8.08626771 -2 1 C-1.34 0.67 -0.68 0.34 0 0 Z M-2 4 C-1 7 -1 7 -1 7 Z M-3 8 C-2 12 -2 12 -2 12 Z M-4 13 C-4 16.3 -4 19.6 -4 23 C-3.67 23 -3.34 23 -3 23 C-3 19.7 -3 16.4 -3 13 C-3.33 13 -3.66 13 -4 13 Z M-4 29 C-4 32.63 -4 36.26 -4 40 C-3.67 40 -3.34 40 -3 40 C-3 36.37 -3 32.74 -3 29 C-3.33 29 -3.66 29 -4 29 Z M-3 41 C-2 45 -2 45 -2 45 Z M-2 46 C-1 50 -1 50 -1 50 Z M-1 51 C0 53 0 53 0 53 Z M0 54 C1 56 1 56 1 56 Z M79 96 C80 98 80 98 80 98 Z " fill="#2C5031" transform="translate(148,142)"/>
<path d="M0 0 C12.375 2.25 12.375 2.25 17 4 C17.11578302 17.0448865 16.89000167 29.9837256 16 43 C15.67 43 15.34 43 15 43 C15 41.02 15 39.04 15 37 C14.72607422 37.06638672 14.72607422 37.06638672 13.33984375 37.40234375 C5.58222386 39.13046395 -2.08044291 39.59874244 -10 40 C-10 37.36 -10 34.72 -10 32 C-9.34 32.99 -8.68 33.98 -8 35 C-5.36 35 -2.72 35 0 35 C0 23.45 0 11.9 0 0 Z " fill="#B16426" transform="translate(314,301)"/>
<path d="M0 0 C-3.87799357 2.08934394 -7.6885883 2.75902796 -12 3.4375 C-35.68380953 7.44765671 -57.62673111 16.56616249 -72.40234375 36.4765625 C-78.9700674 46.8500331 -82.35608837 57.17025733 -82.3125 69.375 C-82.32861328 70.26960938 -82.34472656 71.16421875 -82.36132812 72.0859375 C-82.36868456 82.20839558 -78.83728009 89.68192784 -74.109375 98.49609375 C-73.74328125 99.32238281 -73.3771875 100.14867187 -73 101 C-73.165 101.33 -73.165 101.33 -74 103 C-85.046967 89.40957325 -89.27410301 74.98250765 -87.7890625 57.51953125 C-85.96175792 45.07355675 -78.83749997 34.58242782 -70 26 C-69.31292969 25.30390625 -68.62585938 24.6078125 -67.91796875 23.890625 C-54.87610941 11.40528285 -37.54190314 5.03530271 -20.125 1.625 C-19.26962646 1.45709961 -18.41425293 1.28919922 -17.53295898 1.11621094 C-11.64493498 0.06191137 -5.97459378 -0.18635763 0 0 Z " fill="#E8F2CC" transform="translate(350,123)"/>
<path d="M0 0 C0.33 0 0.66 0 1 0 C1.33 5.28 1.66 10.56 2 16 C2.66 16 3.32 16 4 16 C4 19.96 4 23.92 4 28 C6.64 28.33 9.28 28.66 12 29 C9.0098979 32.33511388 6.10501426 34.21521119 2 36 C1.34 36 0.68 36 0 36 C0 37.98 0 39.96 0 42 C10.1979284 36.52644922 20.60904758 30.59201609 28.73828125 22.20703125 C30 21 30 21 32 21 C32 20.34 32 19.68 32 19 C34.31 18.67 36.62 18.34 39 18 C39.165 17.505 39.165 17.505 40 15 C39.01 14.34 38.02 13.68 37 13 C39.31 12.34 41.62 11.68 44 11 C45.06546953 14.1964086 45.07427838 16.65747276 45 20 C44.3915625 20.226875 44.3915625 20.226875 41.3125 21.375 C40.58289063 21.6534375 39.85328125 21.931875 39.1015625 22.21875 C37.48133834 22.82106381 35.83802408 23.36150362 34.1875 23.875 C31.32685376 25.34618949 30.60798631 27.27341452 29 30 C26.875 30.625 26.875 30.625 25 31 C24.67 31.99 24.34 32.98 24 34 C22.67334123 34.35897826 21.33780464 34.68509106 20 35 C17.82229057 36.21540105 15.67912189 37.49358763 13.5625 38.8125 C12.45003906 39.49957031 11.33757812 40.18664062 10.19140625 40.89453125 C9.13824219 41.58933594 8.08507812 42.28414063 7 43 C6.06671875 43.57621094 5.1334375 44.15242188 4.171875 44.74609375 C1.13547829 47.89717451 0.99393298 51.07069714 0.6875 55.25 C0.61466797 55.99507813 0.54183594 56.74015625 0.46679688 57.5078125 C0.29094163 59.33670704 0.14270837 61.16822091 0 63 C-0.66 62.34 -1.32 61.68 -2 61 C-2.99 61 -3.98 61 -5 61 C-5.33 64.63 -5.66 68.26 -6 72 C-6.33 72 -6.66 72 -7 72 C-7.27029184 64.86778307 -6.2042267 58.15373961 -5.0625 51.125 C-3.55376061 41.49102273 -2.4890439 32.0243094 -2.17578125 22.28125 C-2 19 -2 19 -1 16 C-0.77202438 13.26710707 -0.58331813 10.54957796 -0.4375 7.8125 C-0.4159082 7.43770508 -0.4159082 7.43770508 -0.30664062 5.54101562 C-0.20077315 3.69421625 -0.0999024 1.84713166 0 0 Z M-1 50 C-1 51.98 -1 53.96 -1 56 C-0.67 56 -0.34 56 0 56 C0 54.02 0 52.04 0 50 C-0.33 50 -0.66 50 -1 50 Z " fill="#205023" transform="translate(332,307)"/>
<path d="M0 0 C2.41363324 1.74780338 2.84283503 3.54202865 3.8125 6.3125 C4.4725 6.9725 5.1325 7.6325 5.8125 8.3125 C5.1525 8.6425 4.4925 8.9725 3.8125 9.3125 C4.4725 10.6325 5.1325 11.9525 5.8125 13.3125 C3.8125 15.3125 3.8125 15.3125 0.1875 15.4375 C-0.92625 15.39625 -2.04 15.355 -3.1875 15.3125 C-3.1875 15.9725 -3.1875 16.6325 -3.1875 17.3125 C-5.25318199 19.13090327 -7.3219777 20.82524669 -9.5 22.5 C-10.13284912 22.99177734 -10.76569824 23.48355469 -11.41772461 23.99023438 C-16.79489359 28.11726058 -22.37039772 31.83169733 -28.1875 35.3125 C-29.07308594 35.869375 -29.95867187 36.42625 -30.87109375 37 C-33.1875 38.3125 -33.1875 38.3125 -35.1875 38.3125 C-35.1875 36.3325 -35.1875 34.3525 -35.1875 32.3125 C-31.5575 30.3325 -27.9275 28.3525 -24.1875 26.3125 C-25.1775 25.6525 -26.1675 24.9925 -27.1875 24.3125 C-24.03008505 21.00473196 -20.35429198 18.23174508 -16.125 16.4375 C-13.75240676 15.05986521 -13.23067932 13.80008145 -12.1875 11.3125 C-11.8575 10.9825 -11.5275 10.6525 -11.1875 10.3125 C-11.11570036 8.79321962 -11.10357993 7.27082518 -11.125 5.75 C-11.13402344 4.92371094 -11.14304687 4.09742188 -11.15234375 3.24609375 C-11.16394531 2.60800781 -11.17554688 1.96992188 -11.1875 1.3125 C-7.19183336 -0.82077965 -4.41330591 -1.387039 0 0 Z " fill="#285D2F" transform="translate(367.1875,310.6875)"/>
<path d="M0 0 C5.33129921 6.34678477 6.48534245 12.90051178 7.5703125 20.9140625 C7.94978977 23.63939925 8.42981268 26.309116 9 29 C9.66 29 10.32 29 11 29 C10.88591797 28.59007812 10.88591797 28.59007812 10.30859375 26.515625 C10.02113281 25.43796875 9.73367187 24.3603125 9.4375 23.25 C9.14746094 22.18265625 8.85742188 21.1153125 8.55859375 20.015625 C8.01257746 17.06790071 8.17843238 15.78230567 9 13 C9.9807289 17.06212449 10.95930947 21.12476357 11.9375 25.1875 C12.07639648 25.76274414 12.07639648 25.76274414 12.77929688 28.67382812 C13.04677734 29.78564453 13.31425781 30.89746094 13.58984375 32.04296875 C13.71290894 32.55355835 13.71290894 32.55355835 14.33569336 35.13745117 C14.94210223 37.750514 15.49023799 40.36658215 16 43 C16.99 43 17.98 43 19 43 C19.66 43 20.32 43 21 43 C21.66 41.68 22.32 40.36 23 39 C23 41.64 23 44.28 23 47 C24.98 47 26.96 47 29 47 C29 46.34 29 45.68 29 45 C29.99 45.33 30.98 45.66 32 46 C32 46.66 32 47.32 32 48 C33.155 47.835 33.155 47.835 39 47 C39 47.66 39 48.32 39 49 C41.31 49 43.62 49 46 49 C46 49.33 46 49.66 46 50 C45.42467026 50.00808685 44.84934052 50.01617371 44.25657654 50.02450562 C38.13790821 50.11217155 32.0195059 50.21169181 25.90112305 50.31738281 C23.63326571 50.3551085 21.36535988 50.39004648 19.09741211 50.421875 C6.15876334 50.60552404 -6.66971368 51.0428325 -19.551651 52.32040405 C-24.40063735 52.80124888 -29.12663655 53.10243932 -34 53 C-29.86989815 50.24659877 -25.98494908 50 -21 50 C-21 49.34 -21 48.68 -21 48 C-3.49253731 45.25373134 -3.49253731 45.25373134 2 48 C1.34 42.72 0.68 37.44 0 32 C0.66 32 1.32 32 2 32 C2.33776684 33.7491497 2.67003671 35.49936145 3 37.25 C3.185625 38.22453125 3.37125 39.1990625 3.5625 40.203125 C4 43 4 43 4 47 C5.98 47 7.96 47 10 47 C8.21225215 35.72867548 5.45073759 24.85121997 2.33764648 13.87548828 C2.03673096 12.79895996 1.73581543 11.72243164 1.42578125 10.61328125 C1.15161377 9.65204346 0.87744629 8.69080566 0.5949707 7.70043945 C0.00875534 5.03973852 -0.11253624 2.71412755 0 0 Z M11 29 C12 32 12 32 12 32 Z M12 33 C13 37 13 37 13 37 Z M13 38 C14 42 14 42 14 42 Z M13 45 C13 45.33 13 45.66 13 46 C14.98 46 16.96 46 19 46 C19 45.67 19 45.34 19 45 C17.02 45 15.04 45 13 45 Z " fill="#1B421E" transform="translate(241,246)"/>
<path d="M0 0 C0.66 0.33 1.32 0.66 2 1 C2.60668945 3.48999023 2.60668945 3.48999023 3.11328125 6.80859375 C3.20992065 7.41525879 3.20992065 7.41525879 3.69897461 10.48535156 C3.90143799 11.78956055 4.10390137 13.09376953 4.3125 14.4375 C6.16845355 25.86405757 8.41136962 36.97702861 12 48 C12.23332031 48.72606445 12.46664062 49.45212891 12.70703125 50.20019531 C20.46513914 74.0449681 20.46513914 74.0449681 25.9765625 78.65234375 C30.58967438 80.70857579 35.38561143 81.64412181 40.3125 82.6875 C40.82586914 82.7999707 40.82586914 82.7999707 43.42382812 83.36914062 C45.94758113 83.92084477 48.4728384 84.46416669 51 85 C51 85.33 51 85.66 51 86 C45.79205838 86.1893797 41.4095836 85.75503893 36.36328125 84.5 C33.83550756 83.96519829 31.38820195 83.74785786 28.8125 83.5625 C24.62819528 83.17144348 21.45621348 82.57000489 18 80 C17.3125 77.1875 17.3125 77.1875 17 74 C16.06057514 71.97084231 15.07401615 69.96124688 14 68 C13.34 68 12.68 68 12 68 C11.67 65.36 11.34 62.72 11 60 C10.34 60 9.68 60 9 60 C-6.47132616 17.41397849 -6.47132616 17.41397849 -2 4 C-1.34 4 -0.68 4 0 4 C0 2.68 0 1.36 0 0 Z M-2 8 C-2 9.65 -2 11.3 -2 13 C-1.67 13 -1.34 13 -1 13 C-1 11.35 -1 9.7 -1 8 C-1.33 8 -1.66 8 -2 8 Z M-1 14 C-1 15.65 -1 17.3 -1 19 C-0.67 19 -0.34 19 0 19 C0 17.35 0 15.7 0 14 C-0.33 14 -0.66 14 -1 14 Z M0 20 C1 24 1 24 1 24 Z M1 25 C2 29 2 29 2 29 Z M2 30 C3 34 3 34 3 34 Z M3 35 C4 37 4 37 4 37 Z M4 38 C5 41 5 41 5 41 Z M5 42 C6 45 6 45 6 45 Z M6 46 C7 48 7 48 7 48 Z M7 49 C8 51 8 51 8 51 Z M8 52 C9 54 9 54 9 54 Z M9 55 C10 57 10 57 10 57 Z " fill="#2E4528" transform="translate(185,357)"/>
<path d="M0 0 C7.22331416 0.04998833 14.66807747 0.66807747 20 6 C20.27912647 8.93082793 20.47226924 11.15472359 20 14 C16.79022003 17.68530293 12.55074654 17.88160759 7.87890625 18.23828125 C-2.19125954 18.46364421 -2.19125954 18.46364421 -5.75 16.4375 C-9.47527233 12.40178831 -9 8.23384975 -9 3 C-8.43410156 2.86722656 -7.86820312 2.73445313 -7.28515625 2.59765625 C-6.91841797 2.50935547 -6.91841797 2.50935547 -5.0625 2.0625 C-4.33160156 1.88847656 -3.60070312 1.71445312 -2.84765625 1.53515625 C-1 1 -1 1 0 0 Z " fill="#C7332F" transform="translate(297,354)"/>
<path d="M0 0 C0.33 0 0.66 0 1 0 C0.03045542 21.0290877 -7.33610156 41.33146634 -23 56 C-39.66699535 69.59071797 -57.65829186 75.08346334 -79 74 C-79.66 73.67 -80.32 73.34 -81 73 C-80.67 72.01 -80.34 71.02 -80 70 C-79.15179688 70.03480469 -78.30359375 70.06960937 -77.4296875 70.10546875 C-56.08948449 70.59793497 -37.30767916 62.78013516 -21.75 48.1875 C-9.37927746 35.19575725 -4.7459053 16.81159382 0 0 Z " fill="#60A339" transform="translate(368,160)"/>
<path d="M0 0 C0.99 0 1.98 0 3 0 C4.4824524 6.52462075 3.31179061 11.97372487 1.875 18.4375 C1.76103882 18.96581421 1.76103882 18.96581421 1.18432617 21.6394043 C-3.65518322 43.48277484 -3.65518322 43.48277484 -8 50 C-8.89130413 52.6739124 -9.47731534 55.23723823 -10 58 C-10.66 58 -11.32 58 -12 58 C-12 59.65 -12 61.3 -12 63 C-12.33 63.165 -12.33 63.165 -14 64 C-14.72693904 65.97888961 -15.39816251 67.97954558 -16 70 C-16.99 70 -17.98 70 -19 70 C-20.76480882 70.6041941 -22.5135695 71.25602379 -24.25 71.9375 C-32.88691979 75.12842468 -40.87572183 75.12348647 -50 75 C-50 74.67 -50 74.34 -50 74 C-49.43603516 73.89453857 -48.87207031 73.78907715 -48.29101562 73.68041992 C-45.69255853 73.19015002 -43.09633176 72.68889834 -40.5 72.1875 C-39.613125 72.02185547 -38.72625 71.85621094 -37.8125 71.68554688 C-23.35026085 68.86753704 -23.35026085 68.86753704 -19.828125 63.99609375 C-19.30734375 62.82175781 -18.7865625 61.64742188 -18.25 60.4375 C-17.96398926 59.80545654 -17.67797852 59.17341309 -17.38330078 58.5222168 C-16.56409125 56.69236973 -15.78104111 54.8464613 -15 53 C-14.62101562 52.18273437 -14.24203125 51.36546875 -13.8515625 50.5234375 C-8.39504571 38.1698835 -5.90111275 24.13755936 -3 11 C-2.34 11 -1.68 11 -1 11 C-0.67 7.37 -0.34 3.74 0 0 Z M2 3 C3 7 3 7 3 7 Z M1 8 C1 9.65 1 11.3 1 13 C1.33 13 1.66 13 2 13 C2 11.35 2 9.7 2 8 C1.67 8 1.34 8 1 8 Z M0 14 C1 18 1 18 1 18 Z M-1 19 C0 23 0 23 0 23 Z M-2 24 C-1 27 -1 27 -1 27 Z M-3 28 C-2 31 -2 31 -2 31 Z M-4 32 C-3 35 -3 35 -3 35 Z M-5 36 C-4 38 -4 38 -4 38 Z M-6 39 C-5 41 -5 41 -5 41 Z M-7 42 C-6 44 -6 44 -6 44 Z M-8 45 C-7 47 -7 47 -7 47 Z M-11 54 C-10 56 -10 56 -10 56 Z " fill="#2E472B" transform="translate(327,368)"/>
<path d="M0 0 C1.14210937 -0.00257813 2.28421875 -0.00515625 3.4609375 -0.0078125 C6.05736152 0.1011732 8.16124883 0.36038757 10.625 1.125 C10.625 1.785 10.625 2.445 10.625 3.125 C11.945 3.785 13.265 4.445 14.625 5.125 C14.9375 8.375 14.9375 8.375 14.625 12.125 C10.26524984 16.60258124 6.38084222 17.30451442 0.3125 17.4375 C-6.99005141 17.35608917 -6.99005141 17.35608917 -10.125 15.5625 C-12.375 13.125 -12.375 13.125 -13.5625 9.6875 C-13.375 6.125 -13.375 6.125 -11.0625 3.25 C-7.06118967 0.08617323 -5.06732145 -0.01138724 0 0 Z " fill="#C9322F" transform="translate(216.375,354.875)"/>
<path d="M0 0 C13.87329303 1.7604368 26.39775537 5.73278485 38.68457031 12.32080078 C42.11481248 14.1493769 45.12800209 15.49656624 49 16 C49.165 16.495 49.165 16.495 50 19 C50.3196875 19.0721875 50.3196875 19.0721875 51.9375 19.4375 C52.618125 19.623125 53.29875 19.80875 54 20 C54.69937532 21.31647119 55.36729133 22.65022151 56 24 C56.99 24.33 57.98 24.66 59 25 C59.165 25.33 59.165 25.33 60 27 C60.804375 27.70125 61.60875 28.4025 62.4375 29.125 C65.68827278 32.77220849 66.11548345 35.25577484 67 40 C67.66 40 68.32 40 69 40 C72.02970109 46.67965594 72.37373178 52.22263498 72.1875 59.5 C72.18073242 60.00660156 72.18073242 60.00660156 72.14648438 62.5703125 C72.11143063 65.04744404 72.06229764 67.52342927 72 70 C71.34 69.67 71.34 69.67 68 68 C68.02320313 67.01257813 68.04640625 66.02515625 68.0703125 65.0078125 C68.08835937 63.72648437 68.10640625 62.44515625 68.125 61.125 C68.14820313 59.84882813 68.17140625 58.57265625 68.1953125 57.2578125 C68 54 68 54 66 52 C65.53174677 50.51529463 65.12307495 49.01143184 64.75 47.5 C63.07950828 41.68265948 60.40004413 36.97773211 57 32 C56.59394531 31.38382813 56.18789062 30.76765625 55.76953125 30.1328125 C47.51245626 19.10644159 33.24340676 14.14699961 20.79199219 9.67626953 C18.78369277 8.91836907 16.88277221 8.03104193 15 7 C15 6.34 15 5.68 15 5 C14.08476562 4.80664062 13.16953125 4.61328125 12.2265625 4.4140625 C11.03804687 4.15367187 9.84953125 3.89328125 8.625 3.625 C7.44164062 3.36976563 6.25828125 3.11453125 5.0390625 2.8515625 C2 2 2 2 0 0 Z M68 42 C69 44 69 44 69 44 Z M69 45 C70 47 70 47 70 47 Z M70 48 C70 49.65 70 51.3 70 53 C70.33 53 70.66 53 71 53 C71 51.35 71 49.7 71 48 C70.67 48 70.34 48 70 48 Z " fill="#29512D" transform="translate(178,136)"/>
<path d="M0 0 C1.28919876 3.86759628 0.37011948 5.22769675 -0.9375 9.0625 C-3.17793597 16.46066535 -3.38854524 23.68076128 -3.375 31.375 C-3.3762085 32.47980713 -3.37741699 33.58461426 -3.37866211 34.72290039 C-3.16016632 51.28238387 2.02971934 66.80339243 13.4375 79.0625 C18.72605858 84.18098242 24.69503278 87.70813935 31.0703125 91.28515625 C32.03710938 91.85105469 33.00390625 92.41695313 34 93 C34 93.33 34 93.66 34 94 C27.84902974 93.58138292 23.99253474 92.34998099 18.9375 88.875 C18.32970703 88.46757568 17.72191406 88.06015137 17.09570312 87.64038086 C3.95169494 78.63475871 -2.89665665 66.17464933 -6.54638672 50.68041992 C-9.27132367 34.57865307 -9.07507951 14.11967959 0 0 Z " fill="#EAF3D2" transform="translate(156,135)"/>
<path d="M0 0 C0 0.99 0 1.98 0 3 C-6.58461293 5.19487098 -13.20557432 6.75098813 -20 8.125 C-20.82983398 8.29547852 -21.65966797 8.46595703 -22.51464844 8.64160156 C-43.24192769 12.73819153 -78.39850055 15.40099964 -97 3 C-92.78202892 2.84661923 -89.16646754 2.8618265 -85.09545898 3.99121094 C-78.74479824 5.4579559 -72.39766978 5.28617055 -65.91015625 5.265625 C-64.55691966 5.26697593 -63.20368355 5.26892001 -61.85044861 5.27142334 C-59.02728613 5.27435549 -56.20425106 5.27013966 -53.38110352 5.26074219 C-49.78942983 5.24935973 -46.19805555 5.25591153 -42.60639286 5.26788712 C-39.81544298 5.27516707 -37.02456229 5.27278969 -34.23361015 5.26763153 C-32.27407 5.2656763 -30.314527 5.27167751 -28.35499573 5.27789307 C-18.14282922 5.2247509 -9.44952098 3.84980485 0 0 Z " fill="#405739" transform="translate(308,437)"/>
<path d="M0 0 C7.60044888 -0.21877625 14.8573936 0.60084511 22.375 1.6875 C23.60130127 1.86321533 24.82760254 2.03893066 26.09106445 2.2199707 C53.31274745 6.31274745 53.31274745 6.31274745 57 10 C57.08669432 11.4887186 57.10703494 12.981445 57.09765625 14.47265625 C57.09443359 15.37177734 57.09121094 16.27089844 57.08789062 17.19726562 C57.08370117 17.6700293 57.08370117 17.6700293 57.0625 20.0625 C57.05798828 21.01189453 57.05347656 21.96128906 57.04882812 22.93945312 C57.0370011 25.29303065 57.02052025 27.64648477 57 30 C54 31 54 31 51 30 C51 24.06 51 18.12 51 12 C48.00080533 11.32952135 45.00083475 10.66306753 42 10 C41.24879883 9.83242188 40.49759766 9.66484375 39.72363281 9.4921875 C24.56881878 6.17274975 9.47340333 4.8663838 -6 4 C-6 3.67 -6 3.34 -6 3 C-4.02 2.67 -2.04 2.34 0 2 C0 1.34 0 0.68 0 0 Z " fill="#2D4628" transform="translate(280,293)"/>
<path d="M0 0 C1.32 0.33 2.64 0.66 4 1 C4.06469482 1.59611084 4.12938965 2.19222168 4.19604492 2.80639648 C5.85794818 17.79205629 8.28579936 32.4704994 11.41455078 47.21777344 C12.30971621 51.47186237 13.15656188 55.73539895 14 60 C12.35 60 10.7 60 9 60 C5.88724676 48.21236069 3.43124671 36.4463515 1.6875 24.375 C1.51637695 23.21516602 1.34525391 22.05533203 1.16894531 20.86035156 C0.20171259 13.86048231 -0.21646712 7.06413273 0 0 Z " fill="#F59F67" transform="translate(185,338)"/>
<path d="M0 0 C0.309375 0.0928125 0.309375 0.0928125 1.875 0.5625 C4 1 4 1 6 0 C5.67 11.22 5.34 22.44 5 34 C4.01 34 3.02 34 2 34 C1.97494385 33.32533691 1.9498877 32.65067383 1.92407227 31.95556641 C1.8067369 28.84524807 1.68464473 25.73513304 1.5625 22.625 C1.52318359 21.56410156 1.48386719 20.50320312 1.44335938 19.41015625 C1.18406826 12.90793287 0.73783964 6.46582908 0 0 Z " fill="#205023" transform="translate(368,129)"/>
<path d="M0 0 C0.33 0 0.66 0 1 0 C1 9.9 1 19.8 1 30 C0.67 30 0.34 30 0 30 C0 20.1 0 10.2 0 0 Z " fill="#0E2D1F" transform="translate(374,135)"/>
<path d="M0 0 C0.33 0 0.66 0 1 0 C1 8.58 1 17.16 1 26 C0.67 26 0.34 26 0 26 C0 17.42 0 8.84 0 0 Z " fill="#243624" transform="translate(177,302)"/>
<path d="M0 0 C6.6 0 13.2 0 20 0 C20 0.33 20 0.66 20 1 C13.4 1 6.8 1 0 1 C0 0.67 0 0.34 0 0 Z " fill="#000C00" transform="translate(248,449)"/>
<path d="M0 0 C5.61 0 11.22 0 17 0 C17 0.33 17 0.66 17 1 C11.39 1 5.78 1 0 1 C0 0.67 0 0.34 0 0 Z " fill="#293229" transform="translate(290,239)"/>
<path d="M0 0 C0.33 0 0.66 0 1 0 C1 4.29 1 8.58 1 13 C0.67 13 0.34 13 0 13 C0 8.71 0 4.42 0 0 Z " fill="#000000" transform="translate(254,189)"/>
<path d="M0 0 C3.96 0 7.92 0 12 0 C12 0.33 12 0.66 12 1 C8.04 1 4.08 1 0 1 C0 0.67 0 0.34 0 0 Z " fill="#13241C" transform="translate(277,291)"/>
<path d="M0 0 C3.3 0 6.6 0 10 0 C10 0.33 10 0.66 10 1 C6.7 1 3.4 1 0 1 C0 0.67 0 0.34 0 0 Z " fill="#232F1E" transform="translate(268,448)"/>
<path d="M0 0 C3.3 0 6.6 0 10 0 C10 0.33 10 0.66 10 1 C6.7 1 3.4 1 0 1 C0 0.67 0 0.34 0 0 Z " fill="#282D28" transform="translate(237,448)"/>
<path d="M0 0 C0.33 0 0.66 0 1 0 C1 3.3 1 6.6 1 10 C0.67 10 0.34 10 0 10 C0 6.7 0 3.4 0 0 Z " fill="#000000" transform="translate(250,190)"/>
<path d="M0 0 C2.97 0 5.94 0 9 0 C9 0.33 9 0.66 9 1 C6.03 1 3.06 1 0 1 C0 0.67 0 0.34 0 0 Z " fill="#142525" transform="translate(218,292)"/>
<path d="M0 0 C2.97 0 5.94 0 9 0 C9 0.33 9 0.66 9 1 C6.03 1 3.06 1 0 1 C0 0.67 0 0.34 0 0 Z " fill="#000000" transform="translate(203,239)"/>
<path d="M0 0 C2.64 0 5.28 0 8 0 C8 0.33 8 0.66 8 1 C5.36 1 2.72 1 0 1 C0 0.67 0 0.34 0 0 Z " fill="#172A2A" transform="translate(290,292)"/>
<path d="M0 0 C2.64 0 5.28 0 8 0 C8 0.33 8 0.66 8 1 C5.36 1 2.72 1 0 1 C0 0.67 0 0.34 0 0 Z " fill="#172A2A" transform="translate(342,117)"/>
<path d="M0 0 C2.31 0 4.62 0 7 0 C7 0.33 7 0.66 7 1 C4.69 1 2.38 1 0 1 C0 0.67 0 0.34 0 0 Z " fill="#15261D" transform="translate(211,293)"/>
<path d="M0 0 C2.31 0 4.62 0 7 0 C7 0.33 7 0.66 7 1 C4.69 1 2.38 1 0 1 C0 0.67 0 0.34 0 0 Z " fill="#0E2B1D" transform="translate(334,118)"/>
<path d="M0 0 C2.31 0 4.62 0 7 0 C7 0.33 7 0.66 7 1 C4.69 1 2.38 1 0 1 C0 0.67 0 0.34 0 0 Z " fill="#132B1A" transform="translate(351,116)"/>
<path d="M0 0 C1.98 0 3.96 0 6 0 C6 0.33 6 0.66 6 1 C4.02 1 2.04 1 0 1 C0 0.67 0 0.34 0 0 Z " fill="#276532" transform="translate(231,447)"/>
<path d="M0 0 C0.33 0 0.66 0 1 0 C1 1.98 1 3.96 1 6 C0.67 6 0.34 6 0 6 C0 4.02 0 2.04 0 0 Z " fill="#002A00" transform="translate(355,315)"/>
<path d="M0 0 C1.98 0 3.96 0 6 0 C6 0.33 6 0.66 6 1 C4.02 1 2.04 1 0 1 C0 0.67 0 0.34 0 0 Z " fill="#112411" transform="translate(198,295)"/>
<path d="M0 0 C1.98 0 3.96 0 6 0 C6 0.33 6 0.66 6 1 C4.02 1 2.04 1 0 1 C0 0.67 0 0.34 0 0 Z " fill="#162716" transform="translate(306,294)"/>
<path d="M0 0 C1.98 0 3.96 0 6 0 C6 0.33 6 0.66 6 1 C4.02 1 2.04 1 0 1 C0 0.67 0 0.34 0 0 Z " fill="#161F1F" transform="translate(204,294)"/>
<path d="M0 0 C1.98 0 3.96 0 6 0 C6 0.33 6 0.66 6 1 C4.02 1 2.04 1 0 1 C0 0.67 0 0.34 0 0 Z " fill="#112219" transform="translate(299,293)"/>
<path d="M0 0 C1.98 0 3.96 0 6 0 C6 0.33 6 0.66 6 1 C4.02 1 2.04 1 0 1 C0 0.67 0 0.34 0 0 Z " fill="#112219" transform="translate(327,119)"/>
<path d="M0 0 C1.98 0 3.96 0 6 0 C6 0.33 6 0.66 6 1 C4.02 1 2.04 1 0 1 C0 0.67 0 0.34 0 0 Z " fill="#16321F" transform="translate(358,115)"/>
<path d="M0 0 C1.65 0 3.3 0 5 0 C5 0.33 5 0.66 5 1 C3.35 1 1.7 1 0 1 C0 0.67 0 0.34 0 0 Z " fill="#283328" transform="translate(279,447)"/>
<path d="M0 0 C1.65 0 3.3 0 5 0 C5 0.33 5 0.66 5 1 C3.35 1 1.7 1 0 1 C0 0.67 0 0.34 0 0 Z " fill="#2F2F2F" transform="translate(285,446)"/>
<path d="M0 0 C1.65 0 3.3 0 5 0 C5 0.33 5 0.66 5 1 C3.35 1 1.7 1 0 1 C0 0.67 0 0.34 0 0 Z " fill="#253232" transform="translate(290,445)"/>
<path d="M0 0 C0.33 0 0.66 0 1 0 C1 1.65 1 3.3 1 5 C0.67 5 0.34 5 0 5 C0 3.35 0 1.7 0 0 Z " fill="#1D2A24" transform="translate(181,359)"/>
<path d="M0 0 C1.65 0 3.3 0 5 0 C5 0.33 5 0.66 5 1 C3.35 1 1.7 1 0 1 C0 0.67 0 0.34 0 0 Z " fill="#0A140A" transform="translate(149,339)"/>
<path d="M0 0 C0.33 0 0.66 0 1 0 C1 1.65 1 3.3 1 5 C0.67 5 0.34 5 0 5 C0 3.35 0 1.7 0 0 Z " fill="#002F36" transform="translate(141,329)"/>
<path d="M0 0 C1.65 0 3.3 0 5 0 C5 0.33 5 0.66 5 1 C3.35 1 1.7 1 0 1 C0 0.67 0 0.34 0 0 Z " fill="#0A392F" transform="translate(153,316)"/>
<path d="M0 0 C1.65 0 3.3 0 5 0 C5 0.33 5 0.66 5 1 C3.35 1 1.7 1 0 1 C0 0.67 0 0.34 0 0 Z " fill="#1E331E" transform="translate(360,308)"/>
<path d="M0 0 C1.65 0 3.3 0 5 0 C5 0.33 5 0.66 5 1 C3.35 1 1.7 1 0 1 C0 0.67 0 0.34 0 0 Z " fill="#1B321B" transform="translate(317,296)"/>
<path d="M0 0 C1.65 0 3.3 0 5 0 C5 0.33 5 0.66 5 1 C3.35 1 1.7 1 0 1 C0 0.67 0 0.34 0 0 Z " fill="#1B321B" transform="translate(193,296)"/>
<path d="M0 0 C1.65 0 3.3 0 5 0 C5 0.33 5 0.66 5 1 C3.35 1 1.7 1 0 1 C0 0.67 0 0.34 0 0 Z " fill="#1B321B" transform="translate(312,295)"/>
<path d="M0 0 C1.65 0 3.3 0 5 0 C5 0.33 5 0.66 5 1 C3.35 1 1.7 1 0 1 C0 0.67 0 0.34 0 0 Z " fill="#14281E" transform="translate(213,238)"/>
<path d="M0 0 C1.65 0 3.3 0 5 0 C5 0.33 5 0.66 5 1 C3.35 1 1.7 1 0 1 C0 0.67 0 0.34 0 0 Z " fill="#282828" transform="translate(197,238)"/>
<path d="M0 0 C0.33 0.66 0.66 1.32 1 2 C-0.32 1.67 -1.64 1.34 -3 1 C-2.01 0.67 -1.02 0.34 0 0 Z " fill="#052E1C" transform="translate(225,235)"/>
<path d="M0 0 C1.65 0 3.3 0 5 0 C5 0.33 5 0.66 5 1 C3.35 1 1.7 1 0 1 C0 0.67 0 0.34 0 0 Z " fill="#1B321B" transform="translate(186,136)"/>
<path d="M0 0 C4 1 4 1 4 1 Z " fill="#1C2C1C" transform="translate(226,446)"/>
<path d="M0 0 C4 1 4 1 4 1 Z " fill="#1C2C1C" transform="translate(221,445)"/>
<path d="M0 0 C4 1 4 1 4 1 Z " fill="#0C291C" transform="translate(217,444)"/>
<path d="M0 0 C4 1 4 1 4 1 Z " fill="#0C0C0C" transform="translate(365,331)"/>
<path d="M0 0 C1 4 1 4 1 4 Z " fill="#2A4419" transform="translate(377,321)"/>
<path d="M0 0 C4 1 4 1 4 1 Z " fill="#222222" transform="translate(322,297)"/>
<path d="M0 0 C4 1 4 1 4 1 Z " fill="#1C2C1C" transform="translate(189,297)"/>
<path d="M0 0 C4 1 4 1 4 1 Z " fill="#1C2C1C" transform="translate(308,238)"/>
<path d="M0 0 C4 1 4 1 4 1 Z " fill="#222E22" transform="translate(192,237)"/>
<path d="M0 0 C1 4 1 4 1 4 Z " fill="#000000" transform="translate(142,166)"/>
<path d="M0 0 C4 1 4 1 4 1 Z " fill="#222E22" transform="translate(191,137)"/>
<path d="M0 0 C4 1 4 1 4 1 Z " fill="#1C2C1C" transform="translate(182,135)"/>
<path d="M0 0 C4 1 4 1 4 1 Z " fill="#0F2C1C" transform="translate(177,134)"/>
<path d="M0 0 C4 1 4 1 4 1 Z " fill="#0C290C" transform="translate(172,133)"/>
<path d="M0 0 C4 1 4 1 4 1 Z " fill="#222E22" transform="translate(168,132)"/>
<path d="M0 0 C4 1 4 1 4 1 Z " fill="#152525" transform="translate(164,131)"/>
<path d="M0 0 C4 1 4 1 4 1 Z " fill="#222E22" transform="translate(318,121)"/>
<path d="M0 0 C4 1 4 1 4 1 Z " fill="#0C290C" transform="translate(323,120)"/>
<path d="M0 0 C4 1 4 1 4 1 Z " fill="#222E22" transform="translate(364,114)"/>
<path d="M0 0 C3 1 3 1 3 1 Z " fill="#112211" transform="translate(295,444)"/>
<path d="M0 0 C3 1 3 1 3 1 Z " fill="#313131" transform="translate(298,443)"/>
<path d="M0 0 C3 1 3 1 3 1 Z " fill="#118C26" transform="translate(214,443)"/>
<path d="M0 0 C3 1 3 1 3 1 Z " fill="#223737" transform="translate(301,442)"/>
<path d="" fill="#2D2D2D" transform="translate(0,0)"/>
<path d="" fill="#002D2D" transform="translate(0,0)"/>
<path d="" fill="#2D2D2D" transform="translate(0,0)"/>
<path d="M0 0 C3 1 3 1 3 1 Z " fill="#2D532D" transform="translate(369,330)"/>
<path d="M0 0 C3 1 3 1 3 1 Z " fill="#1C311C" transform="translate(329,299)"/>
<path d="M0 0 C3 1 3 1 3 1 Z " fill="#112611" transform="translate(182,299)"/>
<path d="M0 0 C3 1 3 1 3 1 Z " fill="#2D2D2D" transform="translate(326,298)"/>
<path d="M0 0 C3 1 3 1 3 1 Z " fill="#111111" transform="translate(185,298)"/>
<path d="" fill="#2D2D2D" transform="translate(0,0)"/>
<path d="M0 0 C3 1 3 1 3 1 Z " fill="#111111" transform="translate(313,237)"/>
<path d="M0 0 C3 1 3 1 3 1 Z " fill="#2D2D2D" transform="translate(219,237)"/>
<path d="M0 0 C3 1 3 1 3 1 Z " fill="#1C3131" transform="translate(316,236)"/>
<path d="M0 0 C3 1 3 1 3 1 Z " fill="#2D2D2D" transform="translate(189,236)"/>
<path d="M0 0 C3 1 3 1 3 1 Z " fill="#1C311C" transform="translate(186,235)"/>
<path d="M0 0 C3 1 3 1 3 1 Z " fill="#112211" transform="translate(321,234)"/>
<path d="M0 0 C3 1 3 1 3 1 Z " fill="#001C00" transform="translate(179,232)"/>
<path d="M0 0 C3 1 3 1 3 1 Z " fill="#151515" transform="translate(203,141)"/>
<path d="M0 0 C3 1 3 1 3 1 Z " fill="#313131" transform="translate(198,139)"/>
<path d="M0 0 C3 1 3 1 3 1 Z " fill="#111111" transform="translate(195,138)"/>
<path d="M0 0 C3 1 3 1 3 1 Z " fill="#151515" transform="translate(161,130)"/>
<path d="M0 0 C3 1 3 1 3 1 Z " fill="#151515" transform="translate(304,126)"/>
<path d="M0 0 C3 1 3 1 3 1 Z " fill="#113711" transform="translate(312,123)"/>
<path d="M0 0 C3 1 3 1 3 1 Z " fill="#2D3E2D" transform="translate(315,122)"/>
<path d="M0 0 C2 1 2 1 2 1 Z " fill="#333333" transform="translate(211,442)"/>
<path d="M0 0 C2 1 2 1 2 1 Z " fill="#4A4A4A" transform="translate(304,441)"/>
<path d="M0 0 C2 1 2 1 2 1 Z " fill="#4A4A4A" transform="translate(209,441)"/>
<path d="M0 0 C2 1 2 1 2 1 Z " fill="#3F3F3F" transform="translate(207,440)"/>
<path d="" fill="#555555" transform="translate(0,0)"/>
<path d="" fill="#555555" transform="translate(0,0)"/>
<path d="" fill="#555555" transform="translate(0,0)"/>
<path d="" fill="#555555" transform="translate(0,0)"/>
<path d="" fill="#445D44" transform="translate(0,0)"/>
<path d="M0 0 C2 1 2 1 2 1 Z " fill="#2A2A2A" transform="translate(179,358)"/>
<path d="M0 0 C2 1 2 1 2 1 Z " fill="#000000" transform="translate(177,357)"/>
<path d="M0 0 C2 1 2 1 2 1 Z " fill="#193319" transform="translate(175,356)"/>
<path d="M0 0 C2 1 2 1 2 1 Z " fill="#000000" transform="translate(172,354)"/>
<path d="M0 0 C2 1 2 1 2 1 Z " fill="#1F9F1F" transform="translate(334,353)"/>
<path d="M0 0 C2 1 2 1 2 1 Z " fill="#000000" transform="translate(169,352)"/>
<path d="M0 0 C2 1 2 1 2 1 Z " fill="#002A00" transform="translate(337,351)"/>
<path d="M0 0 C2 1 2 1 2 1 Z " fill="#3F3F3F" transform="translate(339,350)"/>
<path d="M0 0 C2 1 2 1 2 1 Z " fill="#000000" transform="translate(166,350)"/>
<path d="M0 0 C2 1 2 1 2 1 Z " fill="#191919" transform="translate(341,349)"/>
<path d="M0 0 C2 1 2 1 2 1 Z " fill="#000000" transform="translate(344,347)"/>
<path d="M0 0 C2 1 2 1 2 1 Z " fill="#000000" transform="translate(347,345)"/>
<path d="M0 0 C2 1 2 1 2 1 Z " fill="#000000" transform="translate(350,343)"/>
<path d="M0 0 C2 1 2 1 2 1 Z " fill="#191919" transform="translate(146,338)"/>
<path d="M0 0 C2 1 2 1 2 1 Z " fill="#2A2A2A" transform="translate(172,337)"/>
<path d="M0 0 C2 1 2 1 2 1 Z " fill="#1F1F1F" transform="translate(144,337)"/>
<path d="M0 0 C2 1 2 1 2 1 Z " fill="#003F00" transform="translate(169,335)"/>
<path d="M0 0 C2 1 2 1 2 1 Z " fill="#2A2A2A" transform="translate(338,334)"/>
<path d="M0 0 C2 1 2 1 2 1 Z " fill="#191919" transform="translate(341,332)"/>
<path d="M0 0 C2 1 2 1 2 1 Z " fill="#2A4A2A" transform="translate(371,316)"/>
<path d="M0 0 C2 1 2 1 2 1 Z " fill="#2A4A2A" transform="translate(332,300)"/>
<path d="M0 0 C2 1 2 1 2 1 Z " fill="#001F00" transform="translate(319,235)"/>
<path d="M0 0 C2 1 2 1 2 1 Z " fill="#4A4A4A" transform="translate(184,234)"/>
<path d="M0 0 C2 1 2 1 2 1 Z " fill="#2A4A4A" transform="translate(324,233)"/>
<path d="M0 0 C2 1 2 1 2 1 Z " fill="#002A2A" transform="translate(182,233)"/>
<path d="M0 0 C2 1 2 1 2 1 Z " fill="#002A2A" transform="translate(326,232)"/>
<path d="M0 0 C2 1 2 1 2 1 Z " fill="#002A2A" transform="translate(328,231)"/>
<path d="M0 0 C2 1 2 1 2 1 Z " fill="#1F1F1F" transform="translate(177,231)"/>
<path d="M0 0 C2 1 2 1 2 1 Z " fill="#002A2A" transform="translate(330,230)"/>
<path d="M0 0 C2 1 2 1 2 1 Z " fill="#1F1F1F" transform="translate(175,230)"/>
<path d="M0 0 C2 1 2 1 2 1 Z " fill="#000000" transform="translate(332,229)"/>
<path d="M0 0 C2 1 2 1 2 1 Z " fill="#193319" transform="translate(334,228)"/>
<path d="M0 0 C2 1 2 1 2 1 Z " fill="#000000" transform="translate(172,228)"/>
<path d="M0 0 C2 1 2 1 2 1 Z " fill="#191919" transform="translate(337,226)"/>
<path d="" fill="#005555" transform="translate(0,0)"/>
<path d="" fill="#005500" transform="translate(0,0)"/>
<path d="" fill="#005555" transform="translate(0,0)"/>
<path d="" fill="#444444" transform="translate(0,0)"/>
<path d="" fill="#555555" transform="translate(0,0)"/>
<path d="M0 0 C2 1 2 1 2 1 Z " fill="#2A2A2A" transform="translate(222,150)"/>
<path d="M0 0 C2 1 2 1 2 1 Z " fill="#191919" transform="translate(219,148)"/>
<path d="M0 0 C2 1 2 1 2 1 Z " fill="#3F3F3F" transform="translate(217,147)"/>
<path d="M0 0 C2 1 2 1 2 1 Z " fill="#2A2A2A" transform="translate(215,146)"/>
<path d="M0 0 C2 1 2 1 2 1 Z " fill="#2A2A2A" transform="translate(213,145)"/>
<path d="M0 0 C2 1 2 1 2 1 Z " fill="#4A4A4A" transform="translate(211,144)"/>
<path d="M0 0 C2 1 2 1 2 1 Z " fill="#001F1F" transform="translate(209,143)"/>
<path d="M0 0 C2 1 2 1 2 1 Z " fill="#002A2A" transform="translate(207,142)"/>
<path d="M0 0 C2 1 2 1 2 1 Z " fill="#2A4A4A" transform="translate(201,140)"/>
<path d="M0 0 C2 1 2 1 2 1 Z " fill="#1F1F1F" transform="translate(292,132)"/>
<path d="M0 0 C2 1 2 1 2 1 Z " fill="#191919" transform="translate(294,131)"/>
<path d="M0 0 C2 1 2 1 2 1 Z " fill="#3F3F3F" transform="translate(296,130)"/>
<path d="M0 0 C2 1 2 1 2 1 Z " fill="#2A2A2A" transform="translate(298,129)"/>
<path d="M0 0 C2 1 2 1 2 1 Z " fill="#1F1F1F" transform="translate(158,129)"/>
<path d="M0 0 C2 1 2 1 2 1 Z " fill="#2A2A2A" transform="translate(300,128)"/>
<path d="M0 0 C2 1 2 1 2 1 Z " fill="#444444" transform="translate(155,128)"/>
<path d="M0 0 C2 1 2 1 2 1 Z " fill="#4A4A4A" transform="translate(302,127)"/>
<path d="M0 0 C2 1 2 1 2 1 Z " fill="#2A4A4A" transform="translate(307,125)"/>
<path d="M0 0 C2 1 2 1 2 1 Z " fill="#2A2A2A" transform="translate(309,124)"/>
<path d="" fill="#000000" transform="translate(0,0)"/>
<path d="" fill="#555555" transform="translate(0,0)"/>
<path d="" fill="#3F7F3F" transform="translate(0,0)"/>
<path d="" fill="#555500" transform="translate(0,0)"/>
<path d="" fill="#005555" transform="translate(0,0)"/>
<path d="" fill="#005500" transform="translate(0,0)"/>
<path d="" fill="#000000" transform="translate(0,0)"/>
<path d="" fill="#005500" transform="translate(0,0)"/>
<path d="" fill="#005500" transform="translate(0,0)"/>
<path d="" fill="#000000" transform="translate(0,0)"/>
<path d="" fill="#333333" transform="translate(0,0)"/>
<path d="" fill="#005500" transform="translate(0,0)"/>
<path d="" fill="#3F3F3F" transform="translate(0,0)"/>
<path d="" fill="#005500" transform="translate(0,0)"/>
<path d="" fill="#005500" transform="translate(0,0)"/>
<path d="" fill="#555555" transform="translate(0,0)"/>
<path d="" fill="#005500" transform="translate(0,0)"/>
<path d="" fill="#007F00" transform="translate(0,0)"/>
<path d="" fill="#333333" transform="translate(0,0)"/>
<path d="" fill="#005500" transform="translate(0,0)"/>
<path d="" fill="#005500" transform="translate(0,0)"/>
<path d="" fill="#3F3F3F" transform="translate(0,0)"/>
<path d="" fill="#003F00" transform="translate(0,0)"/>
<path d="" fill="#333333" transform="translate(0,0)"/>
<path d="" fill="#000000" transform="translate(0,0)"/>
<path d="" fill="#005500" transform="translate(0,0)"/>
<path d="" fill="#003F00" transform="translate(0,0)"/>
<path d="" fill="#005500" transform="translate(0,0)"/>
<path d="" fill="#000000" transform="translate(0,0)"/>
<path d="" fill="#333333" transform="translate(0,0)"/>
<path d="" fill="#2A5555" transform="translate(0,0)"/>
<path d="" fill="#005500" transform="translate(0,0)"/>
<path d="" fill="#333333" transform="translate(0,0)"/>
<path d="" fill="#7F7F7F" transform="translate(0,0)"/>
<path d="" fill="#005500" transform="translate(0,0)"/>
<path d="" fill="#333333" transform="translate(0,0)"/>
<path d="" fill="#000000" transform="translate(0,0)"/>
<path d="" fill="#003F00" transform="translate(0,0)"/>
<path d="" fill="#000000" transform="translate(0,0)"/>
<path d="" fill="#007F00" transform="translate(0,0)"/>
<path d="" fill="#000000" transform="translate(0,0)"/>
<path d="" fill="#007F00" transform="translate(0,0)"/>
<path d="" fill="#000000" transform="translate(0,0)"/>
<path d="" fill="#3F3F3F" transform="translate(0,0)"/>
<path d="" fill="#000000" transform="translate(0,0)"/>
<path d="" fill="#333333" transform="translate(0,0)"/>
<path d="" fill="#555555" transform="translate(0,0)"/>
<path d="" fill="#555555" transform="translate(0,0)"/>
<path d="" fill="#005500" transform="translate(0,0)"/>
<path d="" fill="#000000" transform="translate(0,0)"/>
<path d="" fill="#000000" transform="translate(0,0)"/>
<path d="" fill="#333333" transform="translate(0,0)"/>
<path d="" fill="#005500" transform="translate(0,0)"/>
<path d="" fill="#333333" transform="translate(0,0)"/>
<path d="" fill="#005555" transform="translate(0,0)"/>
<path d="" fill="#244848" transform="translate(0,0)"/>
<path d="" fill="#005500" transform="translate(0,0)"/>
<path d="" fill="#336633" transform="translate(0,0)"/>
<path d="" fill="#000000" transform="translate(0,0)"/>
<path d="" fill="#333333" transform="translate(0,0)"/>
<path d="" fill="#555555" transform="translate(0,0)"/>
<path d="" fill="#005555" transform="translate(0,0)"/>
<path d="" fill="#000000" transform="translate(0,0)"/>
<path d="" fill="#555555" transform="translate(0,0)"/>
<path d="" fill="#005555" transform="translate(0,0)"/>
<path d="" fill="#336633" transform="translate(0,0)"/>
<path d="" fill="#555555" transform="translate(0,0)"/>
<path d="" fill="#005500" transform="translate(0,0)"/>
<path d="" fill="#336633" transform="translate(0,0)"/>
<path d="" fill="#007F00" transform="translate(0,0)"/>
<path d="" fill="#000000" transform="translate(0,0)"/>
<path d="" fill="#336633" transform="translate(0,0)"/>
<path d="" fill="#336633" transform="translate(0,0)"/>
<path d="" fill="#005500" transform="translate(0,0)"/>
<path d="" fill="#555555" transform="translate(0,0)"/>
<path d="" fill="#000000" transform="translate(0,0)"/>
<path d="" fill="#333333" transform="translate(0,0)"/>
<path d="" fill="#005500" transform="translate(0,0)"/>
<path d="" fill="#336633" transform="translate(0,0)"/>
<path d="" fill="#336633" transform="translate(0,0)"/>
<path d="" fill="#555555" transform="translate(0,0)"/>
<path d="" fill="#007F00" transform="translate(0,0)"/>
</svg>
